<svg width="2727" height="1084" viewBox="0 0 2727 1084" fill="none" xmlns="http://www.w3.org/2000/svg">
<rect width="2727" height="1084" />
<path d="M870.674 596.316C856.907 596.316 844.426 593.357 833.232 587.438C822.167 581.391 813.417 573.092 806.984 562.541C800.679 551.862 797.527 539.831 797.527 526.45C797.527 513.069 800.679 501.103 806.984 490.552C813.417 479.873 822.167 471.574 833.232 465.655C844.426 459.608 856.971 456.584 870.867 456.584C882.576 456.584 893.126 458.643 902.519 462.76C912.04 466.877 920.018 472.796 926.451 480.516L906.379 499.044C897.244 488.493 885.921 483.218 872.411 483.218C864.048 483.218 856.585 485.084 850.023 488.815C843.461 492.418 838.314 497.5 834.583 504.062C830.98 510.624 829.179 518.087 829.179 526.45C829.179 534.813 830.98 542.276 834.583 548.838C838.314 555.4 843.461 560.547 850.023 564.278C856.585 567.881 864.048 569.682 872.411 569.682C885.921 569.682 897.244 564.342 906.379 553.663L926.451 572.191C920.018 580.04 912.04 586.023 902.519 590.14C892.998 594.257 882.383 596.316 870.674 596.316ZM1033.64 594L1007.59 556.365L1006.04 556.365L978.831 556.365L978.831 594L947.565 594L947.565 458.9L1006.04 458.9C1018.01 458.9 1028.37 460.894 1037.12 464.883C1045.99 468.872 1052.81 474.533 1057.57 481.867C1062.34 489.201 1064.72 497.886 1064.72 507.922C1064.72 517.958 1062.27 526.643 1057.38 533.977C1052.62 541.182 1045.8 546.715 1036.92 550.575L1067.22 594L1033.64 594ZM1033.06 507.922C1033.06 500.331 1030.62 494.541 1025.73 490.552C1020.84 486.435 1013.7 484.376 1004.31 484.376L978.831 484.376L978.831 531.468L1004.31 531.468C1013.7 531.468 1020.84 529.409 1025.73 525.292C1030.62 521.175 1033.06 515.385 1033.06 507.922ZM1152.45 546.136L1152.45 594L1121.18 594L1121.18 545.75L1068.88 458.9L1102.08 458.9L1138.17 518.923L1174.26 458.9L1204.95 458.9L1152.45 546.136ZM1275.19 458.9C1287.15 458.9 1297.51 460.894 1306.26 464.883C1315.14 468.872 1321.96 474.533 1326.72 481.867C1331.48 489.201 1333.86 497.886 1333.86 507.922C1333.86 517.829 1331.48 526.514 1326.72 533.977C1321.96 541.311 1315.14 546.972 1306.26 550.961C1297.51 554.821 1287.15 556.751 1275.19 556.751L1247.98 556.751L1247.98 594L1216.71 594L1216.71 458.9L1275.19 458.9ZM1273.45 531.275C1282.84 531.275 1289.99 529.281 1294.87 525.292C1299.76 521.175 1302.21 515.385 1302.21 507.922C1302.21 500.331 1299.76 494.541 1294.87 490.552C1289.99 486.435 1282.84 484.376 1273.45 484.376L1247.98 484.376L1247.98 531.275L1273.45 531.275ZM1380.4 484.376L1337.17 484.376L1337.17 458.9L1454.9 458.9L1454.9 484.376L1411.66 484.376L1411.66 594L1380.4 594L1380.4 484.376ZM1535.26 596.316C1521.24 596.316 1508.56 593.292 1497.24 587.245C1486.05 581.198 1477.23 572.899 1470.8 562.348C1464.49 551.669 1461.34 539.703 1461.34 526.45C1461.34 513.197 1464.49 501.296 1470.8 490.745C1477.23 480.066 1486.05 471.702 1497.24 465.655C1508.56 459.608 1521.24 456.584 1535.26 456.584C1549.29 456.584 1561.89 459.608 1573.09 465.655C1584.28 471.702 1593.1 480.066 1599.53 490.745C1605.96 501.296 1609.18 513.197 1609.18 526.45C1609.18 539.703 1605.96 551.669 1599.53 562.348C1593.1 572.899 1584.28 581.198 1573.09 587.245C1561.89 593.292 1549.29 596.316 1535.26 596.316ZM1535.26 569.682C1543.24 569.682 1550.44 567.881 1556.88 564.278C1563.31 560.547 1568.33 555.4 1571.93 548.838C1575.66 542.276 1577.53 534.813 1577.53 526.45C1577.53 518.087 1575.66 510.624 1571.93 504.062C1568.33 497.5 1563.31 492.418 1556.88 488.815C1550.44 485.084 1543.24 483.218 1535.26 483.218C1527.28 483.218 1520.08 485.084 1513.64 488.815C1507.21 492.418 1502.13 497.5 1498.4 504.062C1494.79 510.624 1492.99 518.087 1492.99 526.45C1492.99 534.813 1494.79 542.276 1498.4 548.838C1502.13 555.4 1507.21 560.547 1513.64 564.278C1520.08 567.881 1527.28 569.682 1535.26 569.682ZM1697.33 596.316C1683.56 596.316 1671.08 593.357 1659.89 587.438C1648.82 581.391 1640.08 573.092 1633.64 562.541C1627.34 551.862 1624.19 539.831 1624.19 526.45C1624.19 513.069 1627.34 501.103 1633.64 490.552C1640.08 479.873 1648.82 471.574 1659.89 465.655C1671.08 459.608 1683.63 456.584 1697.53 456.584C1709.23 456.584 1719.78 458.643 1729.18 462.76C1738.7 466.877 1746.68 472.796 1753.11 480.516L1733.04 499.044C1723.9 488.493 1712.58 483.218 1699.07 483.218C1690.71 483.218 1683.24 485.084 1676.68 488.815C1670.12 492.418 1664.97 497.5 1661.24 504.062C1657.64 510.624 1655.84 518.087 1655.84 526.45C1655.84 534.813 1657.64 542.276 1661.24 548.838C1664.97 555.4 1670.12 560.547 1676.68 564.278C1683.24 567.881 1690.71 569.682 1699.07 569.682C1712.58 569.682 1723.9 564.342 1733.04 553.663L1753.11 572.191C1746.68 580.04 1738.7 586.023 1729.18 590.14C1719.66 594.257 1709.04 596.316 1697.33 596.316ZM1860.56 565.05L1797.83 565.05L1785.87 594L1753.83 594L1814.04 458.9L1844.92 458.9L1905.33 594L1872.52 594L1860.56 565.05ZM1850.71 541.311L1829.29 489.587L1807.87 541.311L1850.71 541.311ZM1919.35 458.9L1980.72 458.9C1995.39 458.9 2008.32 461.731 2019.52 467.392C2030.84 472.925 2039.59 480.773 2045.77 490.938C2052.07 501.103 2055.22 512.94 2055.22 526.45C2055.22 539.96 2052.07 551.797 2045.77 561.962C2039.59 572.127 2030.84 580.04 2019.52 585.701C2008.32 591.234 1995.39 594 1980.72 594L1919.35 594L1919.35 458.9ZM1979.18 568.331C1992.69 568.331 2003.43 564.6 2011.41 557.137C2019.52 549.546 2023.57 539.317 2023.57 526.45C2023.57 513.583 2019.52 503.419 2011.41 495.956C2003.43 488.365 1992.69 484.569 1979.18 484.569L1950.62 484.569L1950.62 568.331L1979.18 568.331ZM2183.41 568.91L2183.41 594L2078.8 594L2078.8 458.9L2180.9 458.9L2180.9 483.99L2109.87 483.99L2109.87 513.326L2172.6 513.326L2172.6 537.644L2109.87 537.644L2109.87 568.91L2183.41 568.91ZM2331.23 594L2331.03 512.94L2291.27 579.718L2277.19 579.718L2237.62 514.677L2237.62 594L2208.28 594L2208.28 458.9L2234.15 458.9L2284.71 542.855L2334.51 458.9L2360.18 458.9L2360.56 594L2331.23 594ZM2457.46 546.136L2457.46 594L2426.2 594L2426.2 545.75L2373.89 458.9L2407.09 458.9L2443.18 518.923L2479.27 458.9L2509.96 458.9L2457.46 546.136Z" fill="white"/>
<path d="M264.814 265.6C260.314 268.75 259.414 311.05 260.314 461.8L261.664 654.4L371.464 714.7C431.764 748 482.164 775 483.964 775C485.314 775 536.164 748 596.914 714.7L707.164 654.85L708.514 461.8C709.414 311.05 708.514 268.75 704.014 265.6C700.864 263.8 601.864 262 484.414 262C366.964 262 267.964 263.8 264.814 265.6ZM686.914 461.8C686.914 594.55 685.564 635.5 681.514 639.1C678.364 641.35 632.464 667 580.264 695.8L484.414 748L389.014 695.8C336.364 667 290.464 641.35 287.764 639.1C283.264 635.5 281.914 594.55 281.914 461.8V289H484.414H686.914V461.8Z" fill="white"/>
<path d="M376.121 351.869V363.629H493.071H610.02V417.723V471.817H621.266H632.511V405.963V340.11H504.316H376.121V351.869Z" fill="white"/>
<path d="M395.22 512.599V557.599L439.77 582.349C464.07 596.299 486.57 607.549 489.27 607.549C494.22 607.549 565.77 568.849 572.07 562.549C574.32 560.749 573.87 554.449 570.72 549.499C565.77 539.599 565.32 539.599 527.52 560.299L489.27 580.999L456.87 563.449L424.47 545.449L423.12 506.749L421.77 468.049H408.72H395.22V512.599Z" fill="white"/>
<g filter="url(#filter0_d_161_60)">
<line x1="341.535" y1="372.194" x2="343.291" y2="594.048" stroke="white" stroke-width="28"/>
</g>
<g filter="url(#filter1_d_161_60)">
<line x1="334.712" y1="582.138" x2="491.59" y2="675.796" stroke="white" stroke-width="28"/>
</g>
<g filter="url(#filter2_d_161_60)">
<line x1="477.838" y1="675.331" x2="629.448" y2="594.677" stroke="white" stroke-width="28"/>
</g>
<g filter="url(#filter3_d_161_60)">
<line x1="620.072" y1="607.011" x2="622.025" y2="493.235" stroke="white" stroke-width="28"/>
</g>
<g filter="url(#filter4_d_161_60)">
<line x1="400.34" y1="477.278" x2="475.484" y2="409.95" stroke="white" stroke-width="23"/>
</g>
<g filter="url(#filter5_d_161_60)">
<path d="M464.41 411.999L561.468 456.435" stroke="white" stroke-width="27"/>
</g>
<defs>
<filter id="filter0_d_161_60" x="323.536" y="372.083" width="37.7554" height="230.075" filterUnits="userSpaceOnUse" color-interpolation-filters="sRGB">
<feFlood flood-opacity="0" result="BackgroundImageFix"/>
<feColorMatrix in="SourceAlpha" type="matrix" values="0 0 0 0 0 0 0 0 0 0 0 0 0 0 0 0 0 0 127 0" result="hardAlpha"/>
<feOffset dy="4"/>
<feGaussianBlur stdDeviation="2"/>
<feComposite in2="hardAlpha" operator="out"/>
<feColorMatrix type="matrix" values="0 0 0 0 0 0 0 0 0 0 0 0 0 0 0 0 0 0 0.25 0"/>
<feBlend mode="normal" in2="BackgroundImageFix" result="effect1_dropShadow_161_60"/>
<feBlend mode="normal" in="SourceGraphic" in2="effect1_dropShadow_161_60" result="shape"/>
</filter>
<filter id="filter1_d_161_60" x="323.536" y="570.117" width="179.231" height="125.7" filterUnits="userSpaceOnUse" color-interpolation-filters="sRGB">
<feFlood flood-opacity="0" result="BackgroundImageFix"/>
<feColorMatrix in="SourceAlpha" type="matrix" values="0 0 0 0 0 0 0 0 0 0 0 0 0 0 0 0 0 0 127 0" result="hardAlpha"/>
<feOffset dy="4"/>
<feGaussianBlur stdDeviation="2"/>
<feComposite in2="hardAlpha" operator="out"/>
<feColorMatrix type="matrix" values="0 0 0 0 0 0 0 0 0 0 0 0 0 0 0 0 0 0 0.25 0"/>
<feBlend mode="normal" in2="BackgroundImageFix" result="effect1_dropShadow_161_60"/>
<feBlend mode="normal" in="SourceGraphic" in2="effect1_dropShadow_161_60" result="shape"/>
</filter>
<filter id="filter2_d_161_60" x="467.263" y="582.317" width="172.76" height="113.374" filterUnits="userSpaceOnUse" color-interpolation-filters="sRGB">
<feFlood flood-opacity="0" result="BackgroundImageFix"/>
<feColorMatrix in="SourceAlpha" type="matrix" values="0 0 0 0 0 0 0 0 0 0 0 0 0 0 0 0 0 0 127 0" result="hardAlpha"/>
<feOffset dy="4"/>
<feGaussianBlur stdDeviation="2"/>
<feComposite in2="hardAlpha" operator="out"/>
<feColorMatrix type="matrix" values="0 0 0 0 0 0 0 0 0 0 0 0 0 0 0 0 0 0 0.25 0"/>
<feBlend mode="normal" in2="BackgroundImageFix" result="effect1_dropShadow_161_60"/>
<feBlend mode="normal" in="SourceGraphic" in2="effect1_dropShadow_161_60" result="shape"/>
</filter>
<filter id="filter3_d_161_60" x="602.074" y="492.995" width="37.9487" height="122.257" filterUnits="userSpaceOnUse" color-interpolation-filters="sRGB">
<feFlood flood-opacity="0" result="BackgroundImageFix"/>
<feColorMatrix in="SourceAlpha" type="matrix" values="0 0 0 0 0 0 0 0 0 0 0 0 0 0 0 0 0 0 127 0" result="hardAlpha"/>
<feOffset dy="4"/>
<feGaussianBlur stdDeviation="2"/>
<feComposite in2="hardAlpha" operator="out"/>
<feColorMatrix type="matrix" values="0 0 0 0 0 0 0 0 0 0 0 0 0 0 0 0 0 0 0.25 0"/>
<feBlend mode="normal" in2="BackgroundImageFix" result="effect1_dropShadow_161_60"/>
<feBlend mode="normal" in="SourceGraphic" in2="effect1_dropShadow_161_60" result="shape"/>
</filter>
<filter id="filter4_d_161_60" x="388.666" y="401.385" width="98.4922" height="92.458" filterUnits="userSpaceOnUse" color-interpolation-filters="sRGB">
<feFlood flood-opacity="0" result="BackgroundImageFix"/>
<feColorMatrix in="SourceAlpha" type="matrix" values="0 0 0 0 0 0 0 0 0 0 0 0 0 0 0 0 0 0 127 0" result="hardAlpha"/>
<feOffset dy="4"/>
<feGaussianBlur stdDeviation="2"/>
<feComposite in2="hardAlpha" operator="out"/>
<feColorMatrix type="matrix" values="0 0 0 0 0 0 0 0 0 0 0 0 0 0 0 0 0 0 0.25 0"/>
<feBlend mode="normal" in2="BackgroundImageFix" result="effect1_dropShadow_161_60"/>
<feBlend mode="normal" in="SourceGraphic" in2="effect1_dropShadow_161_60" result="shape"/>
</filter>
<filter id="filter5_d_161_60" x="454.79" y="399.724" width="116.298" height="76.9862" filterUnits="userSpaceOnUse" color-interpolation-filters="sRGB">
<feFlood flood-opacity="0" result="BackgroundImageFix"/>
<feColorMatrix in="SourceAlpha" type="matrix" values="0 0 0 0 0 0 0 0 0 0 0 0 0 0 0 0 0 0 127 0" result="hardAlpha"/>
<feOffset dy="4"/>
<feGaussianBlur stdDeviation="2"/>
<feComposite in2="hardAlpha" operator="out"/>
<feColorMatrix type="matrix" values="0 0 0 0 0 0 0 0 0 0 0 0 0 0 0 0 0 0 0.25 0"/>
<feBlend mode="normal" in2="BackgroundImageFix" result="effect1_dropShadow_161_60"/>
<feBlend mode="normal" in="SourceGraphic" in2="effect1_dropShadow_161_60" result="shape"/>
</filter>
</defs>
</svg>
