<svg width="2727" height="1952" viewBox="0 0 2727 1952" fill="none" xmlns="http://www.w3.org/2000/svg">
<rect width="2727" height="1952" fill="black"/>
<path d="M927.223 319.15C919.536 324.531 917.998 396.794 919.536 654.325L921.842 983.35L1109.42 1086.36C1212.43 1143.25 1298.53 1189.38 1301.6 1189.38C1303.91 1189.38 1390.78 1143.25 1494.56 1086.36L1682.9 984.119L1685.21 654.325C1686.75 396.794 1685.21 324.531 1677.52 319.15C1672.14 316.075 1503.02 313 1302.37 313C1101.73 313 932.605 316.075 927.223 319.15ZM1648.31 654.325C1648.31 881.106 1646 951.062 1639.09 957.212C1633.7 961.056 1555.29 1004.87 1466.12 1054.07L1302.37 1143.25L1139.4 1054.07C1049.45 1004.87 971.042 961.056 966.43 957.212C958.742 951.062 956.436 881.106 956.436 654.325V359.125H1302.37H1648.31V654.325Z" fill="white"/>
<path d="M1117.37 466.527V486.616H1317.16H1516.95V579.027V671.438H1536.16H1555.37V558.938V446.438H1336.37H1117.37V466.527Z" fill="white"/>
<path d="M1150 741.106V817.981L1226.11 860.263C1267.62 884.094 1306.06 903.312 1310.67 903.312C1319.13 903.312 1441.36 837.2 1452.12 826.438C1455.96 823.362 1455.19 812.6 1449.81 804.144C1441.36 787.231 1440.59 787.231 1376.01 822.594L1310.67 857.956L1255.32 827.975L1199.97 797.225L1197.66 731.113L1195.36 665H1173.06H1150V741.106Z" fill="white"/>
<g filter="url(#filter0_d_160_31)">
<line x1="1055.87" y1="501.267" x2="1058.87" y2="880.267" stroke="white" stroke-width="43"/>
</g>
<g filter="url(#filter1_d_160_31)">
<line x1="1045.39" y1="861.977" x2="1313.39" y2="1021.98" stroke="white" stroke-width="43"/>
</g>
<g filter="url(#filter2_d_160_31)">
<line x1="1292.28" y1="1021.24" x2="1551.28" y2="883.456" stroke="white" stroke-width="43"/>
</g>
<g filter="url(#filter3_d_160_31)">
<line x1="1536.54" y1="902.436" x2="1539.88" y2="708.069" stroke="white" stroke-width="43"/>
</g>
<g filter="url(#filter4_d_160_31)">
<line x1="1158.51" y1="680.503" x2="1286.88" y2="565.484" stroke="white" stroke-width="40"/>
</g>
<path d="M715.372 1399.85C704.387 1399.85 694.428 1397.49 685.496 1392.76C676.667 1387.94 669.685 1381.32 664.552 1372.9C659.521 1364.38 657.006 1354.78 657.006 1344.1C657.006 1333.42 659.521 1323.87 664.552 1315.46C669.685 1306.93 676.667 1300.31 685.496 1295.59C694.428 1290.76 704.438 1288.35 715.526 1288.35C724.869 1288.35 733.287 1289.99 740.782 1293.28C748.379 1296.57 754.745 1301.29 759.878 1307.45L743.862 1322.23C736.573 1313.81 727.538 1309.6 716.758 1309.6C710.085 1309.6 704.13 1311.09 698.894 1314.07C693.658 1316.94 689.551 1321 686.574 1326.24C683.699 1331.47 682.262 1337.43 682.262 1344.1C682.262 1350.77 683.699 1356.73 686.574 1361.96C689.551 1367.2 693.658 1371.31 698.894 1374.28C704.13 1377.16 710.085 1378.6 716.758 1378.6C727.538 1378.6 736.573 1374.34 743.862 1365.81L759.878 1380.6C754.745 1386.86 748.379 1391.63 740.782 1394.92C733.185 1398.21 724.715 1399.85 715.372 1399.85ZM845.409 1398L824.619 1367.97L823.387 1367.97L801.673 1367.97L801.673 1398L776.725 1398L776.725 1290.2L823.387 1290.2C832.935 1290.2 841.2 1291.79 848.181 1294.97C855.265 1298.16 860.707 1302.67 864.505 1308.53C868.304 1314.38 870.203 1321.31 870.203 1329.32C870.203 1337.32 868.253 1344.25 864.351 1350.11C860.553 1355.86 855.111 1360.27 848.027 1363.35L872.205 1398L845.409 1398ZM844.947 1329.32C844.947 1323.26 842.997 1318.64 839.095 1315.46C835.194 1312.17 829.496 1310.53 822.001 1310.53L801.673 1310.53L801.673 1348.1L822.001 1348.1C829.496 1348.1 835.194 1346.46 839.095 1343.18C842.997 1339.89 844.947 1335.27 844.947 1329.32ZM940.21 1359.81L940.21 1398L915.262 1398L915.262 1359.5L873.528 1290.2L900.016 1290.2L928.814 1338.09L957.612 1290.2L982.098 1290.2L940.21 1359.81ZM1038.15 1290.2C1047.69 1290.2 1055.96 1291.79 1062.94 1294.97C1070.02 1298.16 1075.46 1302.67 1079.26 1308.53C1083.06 1314.38 1084.96 1321.31 1084.96 1329.32C1084.96 1337.22 1083.06 1344.15 1079.26 1350.11C1075.46 1355.96 1070.02 1360.48 1062.94 1363.66C1055.96 1366.74 1047.69 1368.28 1038.15 1368.28L1016.43 1368.28L1016.43 1398L991.483 1398L991.483 1290.2L1038.15 1290.2ZM1036.76 1347.95C1044.25 1347.95 1049.95 1346.36 1053.85 1343.18C1057.75 1339.89 1059.71 1335.27 1059.71 1329.32C1059.71 1323.26 1057.75 1318.64 1053.85 1315.46C1049.95 1312.17 1044.25 1310.53 1036.76 1310.53L1016.43 1310.53L1016.43 1347.95L1036.76 1347.95ZM1122.09 1310.53L1087.6 1310.53L1087.6 1290.2L1181.54 1290.2L1181.54 1310.53L1147.04 1310.53L1147.04 1398L1122.09 1398L1122.09 1310.53ZM1245.66 1399.85C1234.47 1399.85 1224.36 1397.44 1215.33 1392.61C1206.39 1387.78 1199.36 1381.16 1194.23 1372.74C1189.2 1364.22 1186.68 1354.67 1186.68 1344.1C1186.68 1333.53 1189.2 1324.03 1194.23 1315.61C1199.36 1307.09 1206.39 1300.42 1215.33 1295.59C1224.36 1290.76 1234.47 1288.35 1245.66 1288.35C1256.85 1288.35 1266.92 1290.76 1275.85 1295.59C1284.78 1300.42 1291.81 1307.09 1296.95 1315.61C1302.08 1324.03 1304.65 1333.53 1304.65 1344.1C1304.65 1354.67 1302.08 1364.22 1296.95 1372.74C1291.81 1381.16 1284.78 1387.78 1275.85 1392.61C1266.92 1397.44 1256.85 1399.85 1245.66 1399.85ZM1245.66 1378.6C1252.03 1378.6 1257.78 1377.16 1262.91 1374.28C1268.05 1371.31 1272.05 1367.2 1274.92 1361.96C1277.9 1356.73 1279.39 1350.77 1279.39 1344.1C1279.39 1337.43 1277.9 1331.47 1274.92 1326.24C1272.05 1321 1268.05 1316.94 1262.91 1314.07C1257.78 1311.09 1252.03 1309.6 1245.66 1309.6C1239.3 1309.6 1233.55 1311.09 1228.42 1314.07C1223.28 1316.94 1219.23 1321 1216.25 1326.24C1213.38 1331.47 1211.94 1337.43 1211.94 1344.1C1211.94 1350.77 1213.38 1356.73 1216.25 1361.96C1219.23 1367.2 1223.28 1371.31 1228.42 1374.28C1233.55 1377.16 1239.3 1378.6 1245.66 1378.6ZM1374.99 1399.85C1364 1399.85 1354.04 1397.49 1345.11 1392.76C1336.28 1387.94 1329.3 1381.32 1324.17 1372.9C1319.13 1364.38 1316.62 1354.78 1316.62 1344.1C1316.62 1333.42 1319.13 1323.87 1324.17 1315.46C1329.3 1306.93 1336.28 1300.31 1345.11 1295.59C1354.04 1290.76 1364.05 1288.35 1375.14 1288.35C1384.48 1288.35 1392.9 1289.99 1400.4 1293.28C1407.99 1296.57 1414.36 1301.29 1419.49 1307.45L1403.48 1322.23C1396.19 1313.81 1387.15 1309.6 1376.37 1309.6C1369.7 1309.6 1363.74 1311.09 1358.51 1314.07C1353.27 1316.94 1349.16 1321 1346.19 1326.24C1343.31 1331.47 1341.88 1337.43 1341.88 1344.1C1341.88 1350.77 1343.31 1356.73 1346.19 1361.96C1349.16 1367.2 1353.27 1371.31 1358.51 1374.28C1363.74 1377.16 1369.7 1378.6 1376.37 1378.6C1387.15 1378.6 1396.19 1374.34 1403.48 1365.81L1419.49 1380.6C1414.36 1386.86 1407.99 1391.63 1400.4 1394.92C1392.8 1398.21 1384.33 1399.85 1374.99 1399.85ZM1505.23 1374.9L1455.18 1374.9L1445.63 1398L1420.07 1398L1468.11 1290.2L1492.75 1290.2L1540.96 1398L1514.78 1398L1505.23 1374.9ZM1497.37 1355.96L1480.28 1314.69L1463.19 1355.96L1497.37 1355.96ZM1552.14 1290.2L1601.11 1290.2C1612.82 1290.2 1623.13 1292.46 1632.07 1296.98C1641.1 1301.39 1648.08 1307.65 1653.01 1315.76C1658.04 1323.87 1660.56 1333.32 1660.56 1344.1C1660.56 1354.88 1658.04 1364.33 1653.01 1372.44C1648.08 1380.55 1641.1 1386.86 1632.07 1391.38C1623.13 1395.79 1612.82 1398 1601.11 1398L1552.14 1398L1552.14 1290.2ZM1599.88 1377.52C1610.66 1377.52 1619.23 1374.54 1625.6 1368.59C1632.07 1362.53 1635.3 1354.37 1635.3 1344.1C1635.3 1333.83 1632.07 1325.72 1625.6 1319.77C1619.23 1313.71 1610.66 1310.68 1599.88 1310.68L1577.09 1310.68L1577.09 1377.52L1599.88 1377.52ZM1762.84 1377.98L1762.84 1398L1679.37 1398L1679.37 1290.2L1760.84 1290.2L1760.84 1310.22L1704.16 1310.22L1704.16 1333.63L1754.21 1333.63L1754.21 1353.03L1704.16 1353.03L1704.16 1377.98L1762.84 1377.98ZM1880.79 1398L1880.63 1333.32L1848.91 1386.6L1837.67 1386.6L1806.1 1334.71L1806.1 1398L1782.69 1398L1782.69 1290.2L1803.32 1290.2L1843.67 1357.19L1883.4 1290.2L1903.89 1290.2L1904.19 1398L1880.79 1398ZM1981.51 1359.81L1981.51 1398L1956.57 1398L1956.57 1359.5L1914.83 1290.2L1941.32 1290.2L1970.12 1338.09L1998.92 1290.2L2023.4 1290.2L1981.51 1359.81Z" fill="white"/>
<g filter="url(#filter5_d_160_31)">
<path d="M1268.2 569.248L1434.01 645.161" stroke="white" stroke-width="46"/>
</g>
<defs>
<filter id="filter0_d_160_31" x="1030.37" y="501.097" width="53.9985" height="387.34" filterUnits="userSpaceOnUse" color-interpolation-filters="sRGB">
<feFlood flood-opacity="0" result="BackgroundImageFix"/>
<feColorMatrix in="SourceAlpha" type="matrix" values="0 0 0 0 0 0 0 0 0 0 0 0 0 0 0 0 0 0 127 0" result="hardAlpha"/>
<feOffset dy="4"/>
<feGaussianBlur stdDeviation="2"/>
<feComposite in2="hardAlpha" operator="out"/>
<feColorMatrix type="matrix" values="0 0 0 0 0 0 0 0 0 0 0 0 0 0 0 0 0 0 0.25 0"/>
<feBlend mode="normal" in2="BackgroundImageFix" result="effect1_dropShadow_160_31"/>
<feBlend mode="normal" in="SourceGraphic" in2="effect1_dropShadow_160_31" result="shape"/>
</filter>
<filter id="filter1_d_160_31" x="1030.37" y="843.517" width="298.042" height="204.921" filterUnits="userSpaceOnUse" color-interpolation-filters="sRGB">
<feFlood flood-opacity="0" result="BackgroundImageFix"/>
<feColorMatrix in="SourceAlpha" type="matrix" values="0 0 0 0 0 0 0 0 0 0 0 0 0 0 0 0 0 0 127 0" result="hardAlpha"/>
<feOffset dy="4"/>
<feGaussianBlur stdDeviation="2"/>
<feComposite in2="hardAlpha" operator="out"/>
<feColorMatrix type="matrix" values="0 0 0 0 0 0 0 0 0 0 0 0 0 0 0 0 0 0 0.25 0"/>
<feBlend mode="normal" in2="BackgroundImageFix" result="effect1_dropShadow_160_31"/>
<feBlend mode="normal" in="SourceGraphic" in2="effect1_dropShadow_160_31" result="shape"/>
</filter>
<filter id="filter2_d_160_31" x="1278.18" y="864.475" width="287.195" height="183.746" filterUnits="userSpaceOnUse" color-interpolation-filters="sRGB">
<feFlood flood-opacity="0" result="BackgroundImageFix"/>
<feColorMatrix in="SourceAlpha" type="matrix" values="0 0 0 0 0 0 0 0 0 0 0 0 0 0 0 0 0 0 127 0" result="hardAlpha"/>
<feOffset dy="4"/>
<feGaussianBlur stdDeviation="2"/>
<feComposite in2="hardAlpha" operator="out"/>
<feColorMatrix type="matrix" values="0 0 0 0 0 0 0 0 0 0 0 0 0 0 0 0 0 0 0.25 0"/>
<feBlend mode="normal" in2="BackgroundImageFix" result="effect1_dropShadow_160_31"/>
<feBlend mode="normal" in="SourceGraphic" in2="effect1_dropShadow_160_31" result="shape"/>
</filter>
<filter id="filter3_d_160_31" x="1511.04" y="707.7" width="54.3296" height="203.105" filterUnits="userSpaceOnUse" color-interpolation-filters="sRGB">
<feFlood flood-opacity="0" result="BackgroundImageFix"/>
<feColorMatrix in="SourceAlpha" type="matrix" values="0 0 0 0 0 0 0 0 0 0 0 0 0 0 0 0 0 0 127 0" result="hardAlpha"/>
<feOffset dy="4"/>
<feGaussianBlur stdDeviation="2"/>
<feComposite in2="hardAlpha" operator="out"/>
<feColorMatrix type="matrix" values="0 0 0 0 0 0 0 0 0 0 0 0 0 0 0 0 0 0 0.25 0"/>
<feBlend mode="normal" in2="BackgroundImageFix" result="effect1_dropShadow_160_31"/>
<feBlend mode="normal" in="SourceGraphic" in2="effect1_dropShadow_160_31" result="shape"/>
</filter>
<filter id="filter4_d_160_31" x="1141.17" y="550.589" width="163.063" height="152.81" filterUnits="userSpaceOnUse" color-interpolation-filters="sRGB">
<feFlood flood-opacity="0" result="BackgroundImageFix"/>
<feColorMatrix in="SourceAlpha" type="matrix" values="0 0 0 0 0 0 0 0 0 0 0 0 0 0 0 0 0 0 127 0" result="hardAlpha"/>
<feOffset dy="4"/>
<feGaussianBlur stdDeviation="2"/>
<feComposite in2="hardAlpha" operator="out"/>
<feColorMatrix type="matrix" values="0 0 0 0 0 0 0 0 0 0 0 0 0 0 0 0 0 0 0.25 0"/>
<feBlend mode="normal" in2="BackgroundImageFix" result="effect1_dropShadow_160_31"/>
<feBlend mode="normal" in="SourceGraphic" in2="effect1_dropShadow_160_31" result="shape"/>
</filter>
<filter id="filter5_d_160_31" x="1254.63" y="548.335" width="192.957" height="125.738" filterUnits="userSpaceOnUse" color-interpolation-filters="sRGB">
<feFlood flood-opacity="0" result="BackgroundImageFix"/>
<feColorMatrix in="SourceAlpha" type="matrix" values="0 0 0 0 0 0 0 0 0 0 0 0 0 0 0 0 0 0 127 0" result="hardAlpha"/>
<feOffset dy="4"/>
<feGaussianBlur stdDeviation="2"/>
<feComposite in2="hardAlpha" operator="out"/>
<feColorMatrix type="matrix" values="0 0 0 0 0 0 0 0 0 0 0 0 0 0 0 0 0 0 0.25 0"/>
<feBlend mode="normal" in2="BackgroundImageFix" result="effect1_dropShadow_160_31"/>
<feBlend mode="normal" in="SourceGraphic" in2="effect1_dropShadow_160_31" result="shape"/>
</filter>
</defs>
</svg>
