<svg width="2398" height="620" viewBox="0 0 2398 620" fill="none" xmlns="http://www.w3.org/2000/svg">
<rect width="2398" height="620" fill="black"/>
<path d="M309.409 382.316C298.601 382.316 288.243 380.901 278.336 378.07C268.429 375.111 260.451 371.315 254.404 366.683L265.019 343.137C270.809 347.254 277.628 350.664 285.477 353.366C293.454 355.939 301.496 357.226 309.602 357.226C315.778 357.226 320.732 356.647 324.463 355.489C328.323 354.202 331.154 352.465 332.955 350.278C334.756 348.091 335.657 345.582 335.657 342.751C335.657 339.148 334.242 336.318 331.411 334.259C328.58 332.072 324.849 330.335 320.217 329.048C315.585 327.633 310.438 326.346 304.777 325.188C299.244 323.901 293.647 322.357 287.986 320.556C282.453 318.755 277.371 316.439 272.739 313.608C268.107 310.777 264.311 307.046 261.352 302.414C258.521 297.782 257.106 291.863 257.106 284.658C257.106 276.938 259.165 269.926 263.282 263.621C267.528 257.188 273.833 252.105 282.196 248.374C290.688 244.514 301.303 242.584 314.041 242.584C322.533 242.584 330.896 243.613 339.131 245.672C347.366 247.602 354.635 250.561 360.94 254.55L351.29 278.289C344.985 274.686 338.681 272.049 332.376 270.376C326.071 268.575 319.895 267.674 313.848 267.674C307.801 267.674 302.847 268.382 298.987 269.797C295.127 271.212 292.361 273.078 290.688 275.394C289.015 277.581 288.179 280.155 288.179 283.114C288.179 286.588 289.594 289.419 292.425 291.606C295.256 293.665 298.987 295.337 303.619 296.624C308.251 297.911 313.333 299.197 318.866 300.484C324.527 301.771 330.124 303.25 335.657 304.923C341.318 306.596 346.465 308.847 351.097 311.678C355.729 314.509 359.46 318.24 362.291 322.872C365.25 327.504 366.73 333.358 366.73 340.435C366.73 348.026 364.607 354.974 360.361 361.279C356.115 367.584 349.746 372.666 341.254 376.526C332.891 380.386 322.276 382.316 309.409 382.316ZM414.194 380L414.194 270.376L370.962 270.376L370.962 244.9L488.692 244.9L488.692 270.376L445.46 270.376L445.46 380L414.194 380ZM569.25 382.316C558.571 382.316 548.664 380.579 539.528 377.105C530.522 373.631 522.673 368.742 515.982 362.437C509.42 356.132 504.274 348.734 500.542 340.242C496.94 331.75 495.138 322.486 495.138 312.45C495.138 302.414 496.94 293.15 500.542 284.658C504.274 276.166 509.485 268.768 516.175 262.463C522.866 256.158 530.715 251.269 539.721 247.795C548.728 244.321 558.507 242.584 569.057 242.584C579.737 242.584 589.515 244.321 598.393 247.795C607.4 251.269 615.184 256.158 621.746 262.463C628.437 268.768 633.648 276.166 637.379 284.658C641.111 293.021 642.976 302.285 642.976 312.45C642.976 322.486 641.111 331.814 637.379 340.435C633.648 348.927 628.437 356.325 621.746 362.63C615.184 368.806 607.4 373.631 598.393 377.105C589.515 380.579 579.801 382.316 569.25 382.316ZM569.057 355.682C575.105 355.682 580.637 354.653 585.655 352.594C590.802 350.535 595.305 347.576 599.165 343.716C603.025 339.856 605.985 335.288 608.043 330.013C610.231 324.738 611.324 318.883 611.324 312.45C611.324 306.017 610.231 300.162 608.043 294.887C605.985 289.612 603.025 285.044 599.165 281.184C595.434 277.324 590.995 274.365 585.848 272.306C580.702 270.247 575.105 269.218 569.057 269.218C563.01 269.218 557.413 270.247 552.266 272.306C547.248 274.365 542.809 277.324 538.949 281.184C535.089 285.044 532.066 289.612 529.878 294.887C527.82 300.162 526.79 306.017 526.79 312.45C526.79 318.755 527.82 324.609 529.878 330.013C532.066 335.288 535.025 339.856 538.756 343.716C542.616 347.576 547.12 350.535 552.266 352.594C557.413 354.653 563.01 355.682 569.057 355.682ZM666.474 380L666.474 244.9L692.336 244.9L772.045 342.172L759.5 342.172L759.5 244.9L790.38 244.9L790.38 380L764.711 380L684.809 282.728L697.354 282.728L697.354 380L666.474 380ZM850.329 349.12L848.592 313.029L913.247 244.9L947.987 244.9L889.701 307.625L872.331 326.153L850.329 349.12ZM822.344 380L822.344 244.9L853.417 244.9L853.417 380L822.344 380ZM914.791 380L866.734 321.135L887.192 298.94L951.268 380L914.791 380ZM1006.77 382.316C995.964 382.316 985.607 380.901 975.699 378.07C965.792 375.111 957.815 371.315 951.767 366.683L962.382 343.137C968.172 347.254 974.992 350.664 982.84 353.366C990.818 355.939 998.859 357.226 1006.97 357.226C1013.14 357.226 1018.09 356.647 1021.83 355.489C1025.69 354.202 1028.52 352.465 1030.32 350.278C1032.12 348.091 1033.02 345.582 1033.02 342.751C1033.02 339.148 1031.6 336.318 1028.77 334.259C1025.94 332.072 1022.21 330.335 1017.58 329.048C1012.95 327.633 1007.8 326.346 1002.14 325.188C996.608 323.901 991.011 322.357 985.349 320.556C979.817 318.755 974.734 316.439 970.102 313.608C965.47 310.777 961.675 307.046 958.715 302.414C955.885 297.782 954.469 291.863 954.469 284.658C954.469 276.938 956.528 269.926 960.645 263.621C964.891 257.188 971.196 252.105 979.559 248.374C988.051 244.514 998.666 242.584 1011.4 242.584C1019.9 242.584 1028.26 243.613 1036.49 245.672C1044.73 247.602 1052 250.561 1058.3 254.55L1048.65 278.289C1042.35 274.686 1036.04 272.049 1029.74 270.376C1023.43 268.575 1017.26 267.674 1011.21 267.674C1005.16 267.674 1000.21 268.382 996.35 269.797C992.49 271.212 989.724 273.078 988.051 275.394C986.379 277.581 985.542 280.155 985.542 283.114C985.542 286.588 986.958 289.419 989.788 291.606C992.619 293.665 996.35 295.337 1000.98 296.624C1005.61 297.911 1010.7 299.197 1016.23 300.484C1021.89 301.771 1027.49 303.25 1033.02 304.923C1038.68 306.596 1043.83 308.847 1048.46 311.678C1053.09 314.509 1056.82 318.24 1059.65 322.872C1062.61 327.504 1064.09 333.358 1064.09 340.435C1064.09 348.026 1061.97 354.974 1057.72 361.279C1053.48 367.584 1047.11 372.666 1038.62 376.526C1030.25 380.386 1019.64 382.316 1006.77 382.316Z" fill="white"/>
</svg>
