<svg width="2398" height="620" viewBox="0 0 2398 620" fill="none" xmlns="http://www.w3.org/2000/svg">
<rect width="2398" height="620" fill="black"/>
<path d="M776.409 388.316C765.601 388.316 755.243 386.901 745.336 384.07C735.429 381.111 727.451 377.315 721.404 372.683L732.019 349.137C737.809 353.254 744.628 356.664 752.477 359.366C760.454 361.939 768.496 363.226 776.602 363.226C782.778 363.226 787.732 362.647 791.463 361.489C795.323 360.202 798.154 358.465 799.955 356.278C801.756 354.091 802.657 351.582 802.657 348.751C802.657 345.148 801.242 342.318 798.411 340.259C795.58 338.072 791.849 336.335 787.217 335.048C782.585 333.633 777.438 332.346 771.777 331.188C766.244 329.901 760.647 328.357 754.986 326.556C749.453 324.755 744.371 322.439 739.739 319.608C735.107 316.777 731.311 313.046 728.352 308.414C725.521 303.782 724.106 297.863 724.106 290.658C724.106 282.938 726.165 275.926 730.282 269.621C734.528 263.188 740.833 258.105 749.196 254.374C757.688 250.514 768.303 248.584 781.041 248.584C789.533 248.584 797.896 249.613 806.131 251.672C814.366 253.602 821.635 256.561 827.94 260.55L818.29 284.289C811.985 280.686 805.681 278.049 799.376 276.376C793.071 274.575 786.895 273.674 780.848 273.674C774.801 273.674 769.847 274.382 765.987 275.797C762.127 277.212 759.361 279.078 757.688 281.394C756.015 283.581 755.179 286.155 755.179 289.114C755.179 292.588 756.594 295.419 759.425 297.606C762.256 299.665 765.987 301.337 770.619 302.624C775.251 303.911 780.333 305.197 785.866 306.484C791.527 307.771 797.124 309.25 802.657 310.923C808.318 312.596 813.465 314.847 818.097 317.678C822.729 320.509 826.46 324.24 829.291 328.872C832.25 333.504 833.73 339.358 833.73 346.435C833.73 354.026 831.607 360.974 827.361 367.279C823.115 373.584 816.746 378.666 808.254 382.526C799.891 386.386 789.276 388.316 776.409 388.316ZM881.194 386L881.194 276.376L837.962 276.376L837.962 250.9L955.692 250.9L955.692 276.376L912.46 276.376L912.46 386L881.194 386ZM1036.25 388.316C1025.57 388.316 1015.66 386.579 1006.53 383.105C997.522 379.631 989.673 374.742 982.982 368.437C976.42 362.132 971.274 354.734 967.542 346.242C963.94 337.75 962.138 328.486 962.138 318.45C962.138 308.414 963.94 299.15 967.542 290.658C971.274 282.166 976.485 274.768 983.175 268.463C989.866 262.158 997.715 257.269 1006.72 253.795C1015.73 250.321 1025.51 248.584 1036.06 248.584C1046.74 248.584 1056.52 250.321 1065.39 253.795C1074.4 257.269 1082.18 262.158 1088.75 268.463C1095.44 274.768 1100.65 282.166 1104.38 290.658C1108.11 299.021 1109.98 308.285 1109.98 318.45C1109.98 328.486 1108.11 337.814 1104.38 346.435C1100.65 354.927 1095.44 362.325 1088.75 368.63C1082.18 374.806 1074.4 379.631 1065.39 383.105C1056.52 386.579 1046.8 388.316 1036.25 388.316ZM1036.06 361.682C1042.1 361.682 1047.64 360.653 1052.66 358.594C1057.8 356.535 1062.31 353.576 1066.17 349.716C1070.03 345.856 1072.98 341.288 1075.04 336.013C1077.23 330.738 1078.32 324.883 1078.32 318.45C1078.32 312.017 1077.23 306.162 1075.04 300.887C1072.98 295.612 1070.03 291.044 1066.17 287.184C1062.43 283.324 1057.99 280.365 1052.85 278.306C1047.7 276.247 1042.1 275.218 1036.06 275.218C1030.01 275.218 1024.41 276.247 1019.27 278.306C1014.25 280.365 1009.81 283.324 1005.95 287.184C1002.09 291.044 999.066 295.612 996.878 300.887C994.82 306.162 993.79 312.017 993.79 318.45C993.79 324.755 994.82 330.609 996.878 336.013C999.066 341.288 1002.02 345.856 1005.76 349.716C1009.62 353.576 1014.12 356.535 1019.27 358.594C1024.41 360.653 1030.01 361.682 1036.06 361.682ZM1133.47 386L1133.47 250.9L1159.34 250.9L1239.05 348.172L1226.5 348.172L1226.5 250.9L1257.38 250.9L1257.38 386L1231.71 386L1151.81 288.728L1164.35 288.728L1164.35 386L1133.47 386ZM1317.33 355.12L1315.59 319.029L1380.25 250.9L1414.99 250.9L1356.7 313.625L1339.33 332.153L1317.33 355.12ZM1289.34 386L1289.34 250.9L1320.42 250.9L1320.42 386L1289.34 386ZM1381.79 386L1333.73 327.135L1354.19 304.94L1418.27 386L1381.79 386ZM1473.77 388.316C1462.96 388.316 1452.61 386.901 1442.7 384.07C1432.79 381.111 1424.81 377.315 1418.77 372.683L1429.38 349.137C1435.17 353.254 1441.99 356.664 1449.84 359.366C1457.82 361.939 1465.86 363.226 1473.97 363.226C1480.14 363.226 1485.09 362.647 1488.83 361.489C1492.69 360.202 1495.52 358.465 1497.32 356.278C1499.12 354.091 1500.02 351.582 1500.02 348.751C1500.02 345.148 1498.6 342.318 1495.77 340.259C1492.94 338.072 1489.21 336.335 1484.58 335.048C1479.95 333.633 1474.8 332.346 1469.14 331.188C1463.61 329.901 1458.01 328.357 1452.35 326.556C1446.82 324.755 1441.73 322.439 1437.1 319.608C1432.47 316.777 1428.67 313.046 1425.72 308.414C1422.88 303.782 1421.47 297.863 1421.47 290.658C1421.47 282.938 1423.53 275.926 1427.65 269.621C1431.89 263.188 1438.2 258.105 1446.56 254.374C1455.05 250.514 1465.67 248.584 1478.4 248.584C1486.9 248.584 1495.26 249.613 1503.49 251.672C1511.73 253.602 1519 256.561 1525.3 260.55L1515.65 284.289C1509.35 280.686 1503.04 278.049 1496.74 276.376C1490.43 274.575 1484.26 273.674 1478.21 273.674C1472.16 273.674 1467.21 274.382 1463.35 275.797C1459.49 277.212 1456.72 279.078 1455.05 281.394C1453.38 283.581 1452.54 286.155 1452.54 289.114C1452.54 292.588 1453.96 295.419 1456.79 297.606C1459.62 299.665 1463.35 301.337 1467.98 302.624C1472.61 303.911 1477.7 305.197 1483.23 306.484C1488.89 307.771 1494.49 309.25 1500.02 310.923C1505.68 312.596 1510.83 314.847 1515.46 317.678C1520.09 320.509 1523.82 324.24 1526.65 328.872C1529.61 333.504 1531.09 339.358 1531.09 346.435C1531.09 354.026 1528.97 360.974 1524.72 367.279C1520.48 373.584 1514.11 378.666 1505.62 382.526C1497.25 386.386 1486.64 388.316 1473.77 388.316Z" fill="white"/>
<path d="M190.814 57.6C186.314 60.75 185.414 103.05 186.314 253.8L187.664 446.4L297.464 506.7C357.764 540 408.164 567 409.964 567C411.314 567 462.164 540 522.914 506.7L633.164 446.85L634.514 253.8C635.414 103.05 634.514 60.75 630.014 57.6C626.864 55.8 527.864 54 410.414 54C292.964 54 193.964 55.8 190.814 57.6ZM612.914 253.8C612.914 386.55 611.564 427.5 607.514 431.1C604.364 433.35 558.464 459 506.264 487.8L410.414 540L315.014 487.8C262.364 459 216.464 433.35 213.764 431.1C209.264 427.5 207.914 386.55 207.914 253.8V81H410.414H612.914V253.8Z" fill="white"/>
<path d="M302.121 143.869V155.629H419.071H536.021V209.723V263.817H547.266H558.511V197.963V132.11H430.316H302.121V143.869Z" fill="white"/>
<path d="M321.219 304.599V349.599L365.769 374.349C390.069 388.299 412.569 399.549 415.269 399.549C420.219 399.549 491.77 360.849 498.07 354.549C500.32 352.749 499.87 346.449 496.72 341.499C491.77 331.599 491.32 331.599 453.52 352.299L415.269 372.999L382.869 355.449L350.469 337.449L349.119 298.749L347.769 260.049H334.719H321.219V304.599Z" fill="white"/>
<g filter="url(#filter0_d_804_28422)">
<line x1="267.535" y1="164.194" x2="269.291" y2="386.048" stroke="white" stroke-width="28"/>
</g>
<g filter="url(#filter1_d_804_28422)">
<line x1="260.712" y1="374.138" x2="417.59" y2="467.796" stroke="white" stroke-width="28"/>
</g>
<g filter="url(#filter2_d_804_28422)">
<line x1="403.838" y1="467.331" x2="555.448" y2="386.677" stroke="white" stroke-width="28"/>
</g>
<g filter="url(#filter3_d_804_28422)">
<line x1="546.073" y1="399.011" x2="548.025" y2="285.235" stroke="white" stroke-width="28"/>
</g>
<g filter="url(#filter4_d_804_28422)">
<line x1="326.34" y1="269.278" x2="401.484" y2="201.95" stroke="white" stroke-width="23"/>
</g>
<g filter="url(#filter5_d_804_28422)">
<path d="M390.41 203.999L487.468 248.435" stroke="white" stroke-width="27"/>
</g>
<defs>
<filter id="filter0_d_804_28422" x="249.535" y="164.083" width="37.7551" height="230.075" filterUnits="userSpaceOnUse" color-interpolation-filters="sRGB">
<feFlood flood-opacity="0" result="BackgroundImageFix"/>
<feColorMatrix in="SourceAlpha" type="matrix" values="0 0 0 0 0 0 0 0 0 0 0 0 0 0 0 0 0 0 127 0" result="hardAlpha"/>
<feOffset dy="4"/>
<feGaussianBlur stdDeviation="2"/>
<feComposite in2="hardAlpha" operator="out"/>
<feColorMatrix type="matrix" values="0 0 0 0 0 0 0 0 0 0 0 0 0 0 0 0 0 0 0.25 0"/>
<feBlend mode="normal" in2="BackgroundImageFix" result="effect1_dropShadow_804_28422"/>
<feBlend mode="normal" in="SourceGraphic" in2="effect1_dropShadow_804_28422" result="shape"/>
</filter>
<filter id="filter1_d_804_28422" x="249.535" y="362.117" width="179.231" height="125.7" filterUnits="userSpaceOnUse" color-interpolation-filters="sRGB">
<feFlood flood-opacity="0" result="BackgroundImageFix"/>
<feColorMatrix in="SourceAlpha" type="matrix" values="0 0 0 0 0 0 0 0 0 0 0 0 0 0 0 0 0 0 127 0" result="hardAlpha"/>
<feOffset dy="4"/>
<feGaussianBlur stdDeviation="2"/>
<feComposite in2="hardAlpha" operator="out"/>
<feColorMatrix type="matrix" values="0 0 0 0 0 0 0 0 0 0 0 0 0 0 0 0 0 0 0.25 0"/>
<feBlend mode="normal" in2="BackgroundImageFix" result="effect1_dropShadow_804_28422"/>
<feBlend mode="normal" in="SourceGraphic" in2="effect1_dropShadow_804_28422" result="shape"/>
</filter>
<filter id="filter2_d_804_28422" x="393.263" y="374.317" width="172.76" height="113.374" filterUnits="userSpaceOnUse" color-interpolation-filters="sRGB">
<feFlood flood-opacity="0" result="BackgroundImageFix"/>
<feColorMatrix in="SourceAlpha" type="matrix" values="0 0 0 0 0 0 0 0 0 0 0 0 0 0 0 0 0 0 127 0" result="hardAlpha"/>
<feOffset dy="4"/>
<feGaussianBlur stdDeviation="2"/>
<feComposite in2="hardAlpha" operator="out"/>
<feColorMatrix type="matrix" values="0 0 0 0 0 0 0 0 0 0 0 0 0 0 0 0 0 0 0.25 0"/>
<feBlend mode="normal" in2="BackgroundImageFix" result="effect1_dropShadow_804_28422"/>
<feBlend mode="normal" in="SourceGraphic" in2="effect1_dropShadow_804_28422" result="shape"/>
</filter>
<filter id="filter3_d_804_28422" x="528.075" y="284.995" width="37.9485" height="122.257" filterUnits="userSpaceOnUse" color-interpolation-filters="sRGB">
<feFlood flood-opacity="0" result="BackgroundImageFix"/>
<feColorMatrix in="SourceAlpha" type="matrix" values="0 0 0 0 0 0 0 0 0 0 0 0 0 0 0 0 0 0 127 0" result="hardAlpha"/>
<feOffset dy="4"/>
<feGaussianBlur stdDeviation="2"/>
<feComposite in2="hardAlpha" operator="out"/>
<feColorMatrix type="matrix" values="0 0 0 0 0 0 0 0 0 0 0 0 0 0 0 0 0 0 0.25 0"/>
<feBlend mode="normal" in2="BackgroundImageFix" result="effect1_dropShadow_804_28422"/>
<feBlend mode="normal" in="SourceGraphic" in2="effect1_dropShadow_804_28422" result="shape"/>
</filter>
<filter id="filter4_d_804_28422" x="314.666" y="193.385" width="98.4919" height="92.4579" filterUnits="userSpaceOnUse" color-interpolation-filters="sRGB">
<feFlood flood-opacity="0" result="BackgroundImageFix"/>
<feColorMatrix in="SourceAlpha" type="matrix" values="0 0 0 0 0 0 0 0 0 0 0 0 0 0 0 0 0 0 127 0" result="hardAlpha"/>
<feOffset dy="4"/>
<feGaussianBlur stdDeviation="2"/>
<feComposite in2="hardAlpha" operator="out"/>
<feColorMatrix type="matrix" values="0 0 0 0 0 0 0 0 0 0 0 0 0 0 0 0 0 0 0.25 0"/>
<feBlend mode="normal" in2="BackgroundImageFix" result="effect1_dropShadow_804_28422"/>
<feBlend mode="normal" in="SourceGraphic" in2="effect1_dropShadow_804_28422" result="shape"/>
</filter>
<filter id="filter5_d_804_28422" x="380.79" y="191.724" width="116.298" height="76.9862" filterUnits="userSpaceOnUse" color-interpolation-filters="sRGB">
<feFlood flood-opacity="0" result="BackgroundImageFix"/>
<feColorMatrix in="SourceAlpha" type="matrix" values="0 0 0 0 0 0 0 0 0 0 0 0 0 0 0 0 0 0 127 0" result="hardAlpha"/>
<feOffset dy="4"/>
<feGaussianBlur stdDeviation="2"/>
<feComposite in2="hardAlpha" operator="out"/>
<feColorMatrix type="matrix" values="0 0 0 0 0 0 0 0 0 0 0 0 0 0 0 0 0 0 0.25 0"/>
<feBlend mode="normal" in2="BackgroundImageFix" result="effect1_dropShadow_804_28422"/>
<feBlend mode="normal" in="SourceGraphic" in2="effect1_dropShadow_804_28422" result="shape"/>
</filter>
</defs>
</svg>
