<svg viewBox="0 0 24 24" fill="none" xmlns="http://www.w3.org/2000/svg">
    <path
        d="M22.1623 5.656C21.3989 5.9937 20.5893 6.21548 19.7603 6.314C20.634 5.79144 21.288 4.96902 21.6003 4C20.7803 4.488 19.8813 4.83 18.9443 5.015C18.3149 4.34158 17.4807 3.89497 16.5713 3.74459C15.6618 3.59421 14.7282 3.74849 13.9156 4.18346C13.1029 4.61842 12.4567 5.30969 12.0774 6.1498C11.6981 6.9899 11.607 7.93178 11.8183 8.829C10.1554 8.74566 8.52863 8.31353 7.04358 7.56067C5.55854 6.80781 4.24842 5.75105 3.1983 4.459C2.82659 5.09745 2.63125 5.82323 2.6323 6.562C2.6323 8.012 3.3703 9.293 4.4923 10.043C3.82831 10.0221 3.17893 9.84278 2.5983 9.52V9.572C2.5985 10.5377 2.93267 11.4736 3.54414 12.2211C4.15562 12.9685 5.00678 13.4815 5.9533 13.673C5.33691 13.84 4.6906 13.8647 4.0633 13.745C4.33016 14.5762 4.8503 15.3032 5.55089 15.8241C6.25147 16.345 7.09742 16.6338 7.9703 16.65C7.10278 17.3313 6.10947 17.835 5.04718 18.1322C3.98488 18.4294 2.87442 18.5143 1.7793 18.382C3.69099 19.6114 5.91639 20.2641 8.1893 20.262C15.8823 20.262 20.0893 13.889 20.0893 8.362C20.0893 8.182 20.0843 8 20.0763 7.822C20.8952 7.23017 21.6019 6.49702 22.1633 5.657L22.1623 5.656Z"
        fill="#1DA1F2"
    />
</svg>