<svg width="1079" height="1024" viewBox="0 0 1079 1024" fill="none" xmlns="http://www.w3.org/2000/svg">
<rect width="1024" height="1024" fill="black"/>
<path d="M100.054 883.236C92.7067 883.236 86.046 881.657 80.072 878.498C74.1667 875.271 69.4973 870.842 66.064 865.211C62.6993 859.512 61.017 853.091 61.017 845.95C61.017 838.809 62.6993 832.423 66.064 826.792C69.4973 821.093 74.1667 816.664 80.072 813.505C86.046 810.278 92.741 808.664 100.157 808.664C106.406 808.664 112.036 809.763 117.049 811.96C122.13 814.157 126.388 817.316 129.821 821.436L119.109 831.324C114.234 825.693 108.191 822.878 100.981 822.878C96.5177 822.878 92.535 823.874 89.033 825.865C85.531 827.788 82.7843 830.5 80.793 834.002C78.8703 837.504 77.909 841.487 77.909 845.95C77.909 850.413 78.8703 854.396 80.793 857.898C82.7843 861.4 85.531 864.147 89.033 866.138C92.535 868.061 96.5177 869.022 100.981 869.022C108.191 869.022 114.234 866.172 119.109 860.473L129.821 870.361C126.388 874.55 122.13 877.743 117.049 879.94C111.968 882.137 106.303 883.236 100.054 883.236ZM187.027 882L173.122 861.915L172.298 861.915L157.775 861.915L157.775 882L141.089 882L141.089 809.9L172.298 809.9C178.684 809.9 184.212 810.964 188.881 813.093C193.619 815.222 197.258 818.243 199.799 822.157C202.34 826.071 203.61 830.706 203.61 836.062C203.61 841.418 202.305 846.053 199.696 849.967C197.155 853.812 193.516 856.765 188.778 858.825L204.949 882L187.027 882ZM186.718 836.062C186.718 832.011 185.413 828.921 182.804 826.792C180.195 824.595 176.384 823.496 171.371 823.496L157.775 823.496L157.775 848.628L171.371 848.628C176.384 848.628 180.195 847.529 182.804 845.332C185.413 843.135 186.718 840.045 186.718 836.062ZM250.432 856.456L250.432 882L233.746 882L233.746 856.25L205.833 809.9L223.549 809.9L242.81 841.933L262.071 809.9L278.448 809.9L250.432 856.456ZM315.935 809.9C322.321 809.9 327.848 810.964 332.518 813.093C337.256 815.222 340.895 818.243 343.436 822.157C345.976 826.071 347.247 830.706 347.247 836.062C347.247 841.349 345.976 845.984 343.436 849.967C340.895 853.881 337.256 856.902 332.518 859.031C327.848 861.091 322.321 862.121 315.935 862.121L301.412 862.121L301.412 882L284.726 882L284.726 809.9L315.935 809.9ZM315.008 848.525C320.02 848.525 323.831 847.461 326.441 845.332C329.05 843.135 330.355 840.045 330.355 836.062C330.355 832.011 329.05 828.921 326.441 826.792C323.831 824.595 320.02 823.496 315.008 823.496L301.412 823.496L301.412 848.525L315.008 848.525ZM372.083 823.496L349.011 823.496L349.011 809.9L411.841 809.9L411.841 823.496L388.769 823.496L388.769 882L372.083 882L372.083 823.496ZM454.73 883.236C447.245 883.236 440.481 881.622 434.439 878.395C428.465 875.168 423.761 870.739 420.328 865.108C416.963 859.409 415.281 853.023 415.281 845.95C415.281 838.877 416.963 832.526 420.328 826.895C423.761 821.196 428.465 816.732 434.439 813.505C440.481 810.278 447.245 808.664 454.73 808.664C462.214 808.664 468.944 810.278 474.918 813.505C480.892 816.732 485.595 821.196 489.029 826.895C492.462 832.526 494.179 838.877 494.179 845.95C494.179 853.023 492.462 859.409 489.029 865.108C485.595 870.739 480.892 875.168 474.918 878.395C468.944 881.622 462.214 883.236 454.73 883.236ZM454.73 869.022C458.987 869.022 462.832 868.061 466.266 866.138C469.699 864.147 472.377 861.4 474.3 857.898C476.291 854.396 477.287 850.413 477.287 845.95C477.287 841.487 476.291 837.504 474.3 834.002C472.377 830.5 469.699 827.788 466.266 825.865C462.832 823.874 458.987 822.878 454.73 822.878C450.472 822.878 446.627 823.874 443.194 825.865C439.76 827.788 437.048 830.5 435.057 834.002C433.134 837.504 432.173 841.487 432.173 845.95C432.173 850.413 433.134 854.396 435.057 857.898C437.048 861.4 439.76 864.147 443.194 866.138C446.627 868.061 450.472 869.022 454.73 869.022ZM541.224 883.236C533.877 883.236 527.216 881.657 521.242 878.498C515.337 875.271 510.667 870.842 507.234 865.211C503.869 859.512 502.187 853.091 502.187 845.95C502.187 838.809 503.869 832.423 507.234 826.792C510.667 821.093 515.337 816.664 521.242 813.505C527.216 810.278 533.911 808.664 541.327 808.664C547.576 808.664 553.206 809.763 558.219 811.96C563.3 814.157 567.558 817.316 570.991 821.436L560.279 831.324C555.404 825.693 549.361 822.878 542.151 822.878C537.688 822.878 533.705 823.874 530.203 825.865C526.701 827.788 523.954 830.5 521.963 834.002C520.04 837.504 519.079 841.487 519.079 845.95C519.079 850.413 520.04 854.396 521.963 857.898C523.954 861.4 526.701 864.147 530.203 866.138C533.705 868.061 537.688 869.022 542.151 869.022C549.361 869.022 555.404 866.172 560.279 860.473L570.991 870.361C567.558 874.55 563.3 877.743 558.219 879.94C553.138 882.137 547.473 883.236 541.224 883.236ZM628.334 866.55L594.859 866.55L588.473 882L571.375 882L603.511 809.9L619.991 809.9L652.23 882L634.72 882L628.334 866.55ZM623.081 853.881L611.648 826.277L600.215 853.881L623.081 853.881ZM659.71 809.9L692.464 809.9C700.292 809.9 707.193 811.411 713.167 814.432C719.21 817.385 723.879 821.573 727.175 826.998C730.54 832.423 732.222 838.74 732.222 845.95C732.222 853.16 730.54 859.477 727.175 864.902C723.879 870.327 719.21 874.55 713.167 877.571C707.193 880.524 700.292 882 692.464 882L659.71 882L659.71 809.9ZM691.64 868.301C698.85 868.301 704.584 866.31 708.841 862.327C713.167 858.276 715.33 852.817 715.33 845.95C715.33 839.083 713.167 833.659 708.841 829.676C704.584 825.625 698.85 823.599 691.64 823.599L676.396 823.599L676.396 868.301L691.64 868.301ZM800.632 868.61L800.632 882L744.806 882L744.806 809.9L799.293 809.9L799.293 823.29L761.389 823.29L761.389 838.946L794.864 838.946L794.864 851.924L761.389 851.924L761.389 868.61L800.632 868.61ZM879.519 882L879.416 838.74L858.198 874.378L850.679 874.378L829.564 839.667L829.564 882L813.908 882L813.908 809.9L827.71 809.9L854.696 854.705L881.27 809.9L894.969 809.9L895.175 882L879.519 882ZM946.889 856.456L946.889 882L930.203 882L930.203 856.25L902.29 809.9L920.006 809.9L939.267 841.933L958.528 809.9L974.905 809.9L946.889 856.456Z" fill="white"/>
<path d="M224.306 81.7164C218.411 85.8431 217.232 141.26 218.411 338.754L220.179 591.076L364.026 670.074C443.024 713.699 509.052 749.072 511.41 749.072C513.179 749.072 579.797 713.699 659.384 670.074L803.821 591.665L805.589 338.754C806.768 141.26 805.589 85.8431 799.694 81.7164C795.567 79.3582 665.869 77.0001 512 77.0001C358.131 77.0001 228.433 79.3582 224.306 81.7164ZM777.291 338.754C777.291 512.667 775.523 566.315 770.217 571.032C766.09 573.979 705.958 607.583 637.571 645.313L512 713.699L387.018 645.313C318.043 607.583 257.91 573.979 254.373 571.032C248.477 566.315 246.709 512.667 246.709 338.754V112.372H512H777.291V338.754Z" fill="white"/>
<path d="M370.127 194.736V210.142H523.341H676.555V281.01V351.877H691.287H706.019V265.604V179.33H538.073H370.127V194.736Z" fill="white"/>
<path d="M395.148 405.305V464.258L453.513 496.683C485.348 514.958 514.824 529.697 518.362 529.697C524.846 529.697 618.583 478.997 626.836 470.743C629.784 468.385 629.194 460.132 625.068 453.647C618.583 440.677 617.993 440.677 568.472 467.796L518.362 494.914L475.915 471.922L433.468 448.341L431.7 397.641L429.931 346.941H412.835H395.148V405.305Z" fill="white"/>
<g filter="url(#filter0_d_203_56)">
<line x1="321.476" y1="221.39" x2="323.777" y2="512.036" stroke="white" stroke-width="30"/>
</g>
<g filter="url(#filter1_d_203_56)">
<line x1="314.166" y1="499.275" x2="519.689" y2="621.975" stroke="white" stroke-width="30"/>
</g>
<g filter="url(#filter2_d_203_56)">
<line x1="504.955" y1="621.446" x2="703.576" y2="515.783" stroke="white" stroke-width="30"/>
</g>
<g filter="url(#filter3_d_203_56)">
<line x1="693.065" y1="529.05" x2="695.623" y2="379.994" stroke="white" stroke-width="30"/>
</g>
<g filter="url(#filter4_d_203_56)">
<line x1="401.9" y1="359.081" x2="500.345" y2="270.876" stroke="white" stroke-width="30"/>
</g>
<g filter="url(#filter5_d_203_56)">
<path d="M485.793 273.51L612.947 331.726" stroke="white" stroke-width="30"/>
</g>
<defs>
<filter id="filter0_d_203_56" x="302.477" y="221.271" width="40.2998" height="298.884" filterUnits="userSpaceOnUse" color-interpolation-filters="sRGB">
<feFlood flood-opacity="0" result="BackgroundImageFix"/>
<feColorMatrix in="SourceAlpha" type="matrix" values="0 0 0 0 0 0 0 0 0 0 0 0 0 0 0 0 0 0 127 0" result="hardAlpha"/>
<feOffset dy="4"/>
<feGaussianBlur stdDeviation="2"/>
<feComposite in2="hardAlpha" operator="out"/>
<feColorMatrix type="matrix" values="0 0 0 0 0 0 0 0 0 0 0 0 0 0 0 0 0 0 0.25 0"/>
<feBlend mode="normal" in2="BackgroundImageFix" result="effect1_dropShadow_203_56"/>
<feBlend mode="normal" in="SourceGraphic" in2="effect1_dropShadow_203_56" result="shape"/>
</filter>
<filter id="filter1_d_203_56" x="302.477" y="486.396" width="228.901" height="156.459" filterUnits="userSpaceOnUse" color-interpolation-filters="sRGB">
<feFlood flood-opacity="0" result="BackgroundImageFix"/>
<feColorMatrix in="SourceAlpha" type="matrix" values="0 0 0 0 0 0 0 0 0 0 0 0 0 0 0 0 0 0 127 0" result="hardAlpha"/>
<feOffset dy="4"/>
<feGaussianBlur stdDeviation="2"/>
<feComposite in2="hardAlpha" operator="out"/>
<feColorMatrix type="matrix" values="0 0 0 0 0 0 0 0 0 0 0 0 0 0 0 0 0 0 0.25 0"/>
<feBlend mode="normal" in2="BackgroundImageFix" result="effect1_dropShadow_203_56"/>
<feBlend mode="normal" in="SourceGraphic" in2="effect1_dropShadow_203_56" result="shape"/>
</filter>
<filter id="filter2_d_203_56" x="493.91" y="502.54" width="220.711" height="140.149" filterUnits="userSpaceOnUse" color-interpolation-filters="sRGB">
<feFlood flood-opacity="0" result="BackgroundImageFix"/>
<feColorMatrix in="SourceAlpha" type="matrix" values="0 0 0 0 0 0 0 0 0 0 0 0 0 0 0 0 0 0 127 0" result="hardAlpha"/>
<feOffset dy="4"/>
<feGaussianBlur stdDeviation="2"/>
<feComposite in2="hardAlpha" operator="out"/>
<feColorMatrix type="matrix" values="0 0 0 0 0 0 0 0 0 0 0 0 0 0 0 0 0 0 0.25 0"/>
<feBlend mode="normal" in2="BackgroundImageFix" result="effect1_dropShadow_203_56"/>
<feBlend mode="normal" in="SourceGraphic" in2="effect1_dropShadow_203_56" result="shape"/>
</filter>
<filter id="filter3_d_203_56" x="674.067" y="379.737" width="40.5537" height="157.571" filterUnits="userSpaceOnUse" color-interpolation-filters="sRGB">
<feFlood flood-opacity="0" result="BackgroundImageFix"/>
<feColorMatrix in="SourceAlpha" type="matrix" values="0 0 0 0 0 0 0 0 0 0 0 0 0 0 0 0 0 0 127 0" result="hardAlpha"/>
<feOffset dy="4"/>
<feGaussianBlur stdDeviation="2"/>
<feComposite in2="hardAlpha" operator="out"/>
<feColorMatrix type="matrix" values="0 0 0 0 0 0 0 0 0 0 0 0 0 0 0 0 0 0 0.25 0"/>
<feBlend mode="normal" in2="BackgroundImageFix" result="effect1_dropShadow_203_56"/>
<feBlend mode="normal" in="SourceGraphic" in2="effect1_dropShadow_203_56" result="shape"/>
</filter>
<filter id="filter4_d_203_56" x="387.891" y="259.704" width="126.464" height="118.549" filterUnits="userSpaceOnUse" color-interpolation-filters="sRGB">
<feFlood flood-opacity="0" result="BackgroundImageFix"/>
<feColorMatrix in="SourceAlpha" type="matrix" values="0 0 0 0 0 0 0 0 0 0 0 0 0 0 0 0 0 0 127 0" result="hardAlpha"/>
<feOffset dy="4"/>
<feGaussianBlur stdDeviation="2"/>
<feComposite in2="hardAlpha" operator="out"/>
<feColorMatrix type="matrix" values="0 0 0 0 0 0 0 0 0 0 0 0 0 0 0 0 0 0 0.25 0"/>
<feBlend mode="normal" in2="BackgroundImageFix" result="effect1_dropShadow_203_56"/>
<feBlend mode="normal" in="SourceGraphic" in2="effect1_dropShadow_203_56" result="shape"/>
</filter>
<filter id="filter5_d_203_56" x="475.549" y="259.872" width="147.643" height="93.4929" filterUnits="userSpaceOnUse" color-interpolation-filters="sRGB">
<feFlood flood-opacity="0" result="BackgroundImageFix"/>
<feColorMatrix in="SourceAlpha" type="matrix" values="0 0 0 0 0 0 0 0 0 0 0 0 0 0 0 0 0 0 127 0" result="hardAlpha"/>
<feOffset dy="4"/>
<feGaussianBlur stdDeviation="2"/>
<feComposite in2="hardAlpha" operator="out"/>
<feColorMatrix type="matrix" values="0 0 0 0 0 0 0 0 0 0 0 0 0 0 0 0 0 0 0.25 0"/>
<feBlend mode="normal" in2="BackgroundImageFix" result="effect1_dropShadow_203_56"/>
<feBlend mode="normal" in="SourceGraphic" in2="effect1_dropShadow_203_56" result="shape"/>
</filter>
</defs>
</svg>
