<svg width="384" height="384" viewBox="0 0 384 384" fill="none" xmlns="http://www.w3.org/2000/svg">
<rect width="384" height="384" fill="black"/>
<path d="M77.5096 30.8769C75.1635 32.5192 74.6943 54.5726 75.1635 133.167L75.8673 233.581L133.113 265.019C164.55 282.38 190.827 296.457 191.765 296.457C192.469 296.457 218.98 282.38 250.653 265.019L308.133 233.816L308.837 133.167C309.306 54.5726 308.837 32.5192 306.49 30.8769C304.848 29.9384 253.234 29 192 29C130.766 29 79.1519 29.9384 77.5096 30.8769ZM297.575 133.167C297.575 202.378 296.871 223.727 294.76 225.604C293.118 226.777 269.187 240.15 241.972 255.165L192 282.38L142.262 255.165C114.813 240.15 90.8825 226.777 89.4748 225.604C87.1287 223.727 86.4249 202.378 86.4249 133.167V43.0767H192H297.575V133.167Z" fill="white"/>
<path d="M135.541 75.8542V81.9851H196.514H257.487V110.188V138.39H263.35H269.212V104.057V69.7232H202.377H135.541V75.8542Z" fill="white"/>
<path d="M145.498 159.652V183.113L168.725 196.017C181.394 203.29 193.124 209.155 194.532 209.155C197.113 209.155 234.416 188.978 237.7 185.694C238.873 184.755 238.639 181.471 236.997 178.89C234.416 173.729 234.181 173.729 214.474 184.521L194.532 195.313L177.64 186.163L160.748 176.779L160.044 156.602L159.34 136.425H152.536H145.498V159.652Z" fill="white"/>
<g filter="url(#filter0_d_201_30)">
<line x1="116.21" y1="86.4609" x2="117.125" y2="202.126" stroke="white" stroke-width="12"/>
</g>
<g filter="url(#filter1_d_201_30)">
<line x1="113.286" y1="198.022" x2="195.075" y2="246.852" stroke="white" stroke-width="12"/>
</g>
<g filter="url(#filter2_d_201_30)">
<line x1="189.182" y1="245.64" x2="268.225" y2="203.591" stroke="white" stroke-width="12"/>
</g>
<g filter="url(#filter3_d_201_30)">
<line x1="264.025" y1="208.897" x2="265.043" y2="149.579" stroke="white" stroke-width="12"/>
</g>
<g filter="url(#filter4_d_201_30)">
<line x1="148.165" y1="141.234" x2="187.342" y2="106.132" stroke="white" stroke-width="12"/>
</g>
<g filter="url(#filter5_d_201_30)">
<path d="M181.57 107.203L232.173 130.371" stroke="white" stroke-width="12"/>
</g>
<path d="M42.466 346.444C39.8267 346.444 37.434 345.877 35.288 344.742C33.1667 343.583 31.4893 341.992 30.256 339.969C29.0473 337.922 28.443 335.615 28.443 333.05C28.443 330.485 29.0473 328.191 30.256 326.168C31.4893 324.121 33.1667 322.53 35.288 321.395C37.434 320.236 39.839 319.656 42.503 319.656C44.7477 319.656 46.7703 320.051 48.571 320.84C50.3963 321.629 51.9257 322.764 53.159 324.244L49.311 327.796C47.5597 325.773 45.389 324.762 42.799 324.762C41.1957 324.762 39.765 325.12 38.507 325.835C37.249 326.526 36.2623 327.5 35.547 328.758C34.8563 330.016 34.511 331.447 34.511 333.05C34.511 334.653 34.8563 336.084 35.547 337.342C36.2623 338.6 37.249 339.587 38.507 340.302C39.765 340.993 41.1957 341.338 42.799 341.338C45.389 341.338 47.5597 340.314 49.311 338.267L53.159 341.819C51.9257 343.324 50.3963 344.471 48.571 345.26C46.7457 346.049 44.7107 346.444 42.466 346.444ZM73.7087 346L68.7137 338.785L68.4177 338.785L63.2007 338.785L63.2007 346L57.2067 346L57.2067 320.1L68.4177 320.1C70.7117 320.1 72.6974 320.482 74.3747 321.247C76.0767 322.012 77.3841 323.097 78.2967 324.503C79.2094 325.909 79.6657 327.574 79.6657 329.498C79.6657 331.422 79.1971 333.087 78.2597 334.493C77.3471 335.874 76.0397 336.935 74.3377 337.675L80.1467 346L73.7087 346ZM73.5977 329.498C73.5977 328.043 73.1291 326.933 72.1917 326.168C71.2544 325.379 69.8854 324.984 68.0847 324.984L63.2007 324.984L63.2007 334.012L68.0847 334.012C69.8854 334.012 71.2544 333.617 72.1917 332.828C73.1291 332.039 73.5977 330.929 73.5977 329.498ZM96.4854 336.824L96.4854 346L90.4914 346L90.4914 336.75L80.4644 320.1L86.8284 320.1L93.7474 331.607L100.666 320.1L106.549 320.1L96.4854 336.824ZM120.015 320.1C122.309 320.1 124.295 320.482 125.972 321.247C127.674 322.012 128.982 323.097 129.894 324.503C130.807 325.909 131.263 327.574 131.263 329.498C131.263 331.397 130.807 333.062 129.894 334.493C128.982 335.899 127.674 336.984 125.972 337.749C124.295 338.489 122.309 338.859 120.015 338.859L114.798 338.859L114.798 346L108.804 346L108.804 320.1L120.015 320.1ZM119.682 333.975C121.483 333.975 122.852 333.593 123.789 332.828C124.727 332.039 125.195 330.929 125.195 329.498C125.195 328.043 124.727 326.933 123.789 326.168C122.852 325.379 121.483 324.984 119.682 324.984L114.798 324.984L114.798 333.975L119.682 333.975ZM140.185 324.984L131.897 324.984L131.897 320.1L154.467 320.1L154.467 324.984L146.179 324.984L146.179 346L140.185 346L140.185 324.984ZM169.874 346.444C167.185 346.444 164.755 345.864 162.585 344.705C160.439 343.546 158.749 341.955 157.516 339.932C156.307 337.885 155.703 335.591 155.703 333.05C155.703 330.509 156.307 328.228 157.516 326.205C158.749 324.158 160.439 322.554 162.585 321.395C164.755 320.236 167.185 319.656 169.874 319.656C172.562 319.656 174.98 320.236 177.126 321.395C179.272 322.554 180.961 324.158 182.195 326.205C183.428 328.228 184.045 330.509 184.045 333.05C184.045 335.591 183.428 337.885 182.195 339.932C180.961 341.955 179.272 343.546 177.126 344.705C174.98 345.864 172.562 346.444 169.874 346.444ZM169.874 341.338C171.403 341.338 172.784 340.993 174.018 340.302C175.251 339.587 176.213 338.6 176.904 337.342C177.619 336.084 177.977 334.653 177.977 333.05C177.977 331.447 177.619 330.016 176.904 328.758C176.213 327.5 175.251 326.526 174.018 325.835C172.784 325.12 171.403 324.762 169.874 324.762C168.344 324.762 166.963 325.12 165.73 325.835C164.496 326.526 163.522 327.5 162.807 328.758C162.116 330.016 161.771 331.447 161.771 333.05C161.771 334.653 162.116 336.084 162.807 337.342C163.522 338.6 164.496 339.587 165.73 340.302C166.963 340.993 168.344 341.338 169.874 341.338ZM200.945 346.444C198.305 346.444 195.913 345.877 193.767 344.742C191.645 343.583 189.968 341.992 188.735 339.969C187.526 337.922 186.922 335.615 186.922 333.05C186.922 330.485 187.526 328.191 188.735 326.168C189.968 324.121 191.645 322.53 193.767 321.395C195.913 320.236 198.318 319.656 200.982 319.656C203.226 319.656 205.249 320.051 207.05 320.84C208.875 321.629 210.404 322.764 211.638 324.244L207.79 327.796C206.038 325.773 203.868 324.762 201.278 324.762C199.674 324.762 198.244 325.12 196.986 325.835C195.728 326.526 194.741 327.5 194.026 328.758C193.335 330.016 192.99 331.447 192.99 333.05C192.99 334.653 193.335 336.084 194.026 337.342C194.741 338.6 195.728 339.587 196.986 340.302C198.244 340.993 199.674 341.338 201.278 341.338C203.868 341.338 206.038 340.314 207.79 338.267L211.638 341.819C210.404 343.324 208.875 344.471 207.05 345.26C205.224 346.049 203.189 346.444 200.945 346.444ZM232.236 340.45L220.211 340.45L217.917 346L211.775 346L223.319 320.1L229.239 320.1L240.82 346L234.53 346L232.236 340.45ZM230.349 335.899L226.242 325.983L222.135 335.899L230.349 335.899ZM243.508 320.1L255.274 320.1C258.086 320.1 260.565 320.643 262.711 321.728C264.881 322.789 266.559 324.293 267.743 326.242C268.951 328.191 269.556 330.46 269.556 333.05C269.556 335.64 268.951 337.909 267.743 339.858C266.559 341.807 264.881 343.324 262.711 344.409C260.565 345.47 258.086 346 255.274 346L243.508 346L243.508 320.1ZM254.978 341.079C257.568 341.079 259.627 340.364 261.157 338.933C262.711 337.478 263.488 335.517 263.488 333.05C263.488 330.583 262.711 328.635 261.157 327.204C259.627 325.749 257.568 325.021 254.978 325.021L249.502 325.021L249.502 341.079L254.978 341.079ZM294.13 341.19L294.13 346L274.076 346L274.076 320.1L293.649 320.1L293.649 324.91L280.033 324.91L280.033 330.534L292.058 330.534L292.058 335.196L280.033 335.196L280.033 341.19L294.13 341.19ZM322.468 346L322.431 330.46L314.809 343.262L312.108 343.262L304.523 330.793L304.523 346L298.899 346L298.899 320.1L303.857 320.1L313.551 336.195L323.097 320.1L328.018 320.1L328.092 346L322.468 346ZM346.669 336.824L346.669 346L340.675 346L340.675 336.75L330.648 320.1L337.012 320.1L343.931 331.607L350.85 320.1L356.733 320.1L346.669 336.824Z" fill="white"/>
<defs>
<filter id="filter0_d_201_30" x="106.21" y="86.4135" width="20.915" height="123.76" filterUnits="userSpaceOnUse" color-interpolation-filters="sRGB">
<feFlood flood-opacity="0" result="BackgroundImageFix"/>
<feColorMatrix in="SourceAlpha" type="matrix" values="0 0 0 0 0 0 0 0 0 0 0 0 0 0 0 0 0 0 127 0" result="hardAlpha"/>
<feOffset dy="4"/>
<feGaussianBlur stdDeviation="2"/>
<feComposite in2="hardAlpha" operator="out"/>
<feColorMatrix type="matrix" values="0 0 0 0 0 0 0 0 0 0 0 0 0 0 0 0 0 0 0.25 0"/>
<feBlend mode="normal" in2="BackgroundImageFix" result="effect1_dropShadow_201_30"/>
<feBlend mode="normal" in="SourceGraphic" in2="effect1_dropShadow_201_30" result="shape"/>
</filter>
<filter id="filter1_d_201_30" x="106.21" y="192.87" width="95.9414" height="67.1331" filterUnits="userSpaceOnUse" color-interpolation-filters="sRGB">
<feFlood flood-opacity="0" result="BackgroundImageFix"/>
<feColorMatrix in="SourceAlpha" type="matrix" values="0 0 0 0 0 0 0 0 0 0 0 0 0 0 0 0 0 0 127 0" result="hardAlpha"/>
<feOffset dy="4"/>
<feGaussianBlur stdDeviation="2"/>
<feComposite in2="hardAlpha" operator="out"/>
<feColorMatrix type="matrix" values="0 0 0 0 0 0 0 0 0 0 0 0 0 0 0 0 0 0 0.25 0"/>
<feBlend mode="normal" in2="BackgroundImageFix" result="effect1_dropShadow_201_30"/>
<feBlend mode="normal" in="SourceGraphic" in2="effect1_dropShadow_201_30" result="shape"/>
</filter>
<filter id="filter2_d_201_30" x="182.364" y="198.294" width="92.6787" height="60.6438" filterUnits="userSpaceOnUse" color-interpolation-filters="sRGB">
<feFlood flood-opacity="0" result="BackgroundImageFix"/>
<feColorMatrix in="SourceAlpha" type="matrix" values="0 0 0 0 0 0 0 0 0 0 0 0 0 0 0 0 0 0 127 0" result="hardAlpha"/>
<feOffset dy="4"/>
<feGaussianBlur stdDeviation="2"/>
<feComposite in2="hardAlpha" operator="out"/>
<feColorMatrix type="matrix" values="0 0 0 0 0 0 0 0 0 0 0 0 0 0 0 0 0 0 0.25 0"/>
<feBlend mode="normal" in2="BackgroundImageFix" result="effect1_dropShadow_201_30"/>
<feBlend mode="normal" in="SourceGraphic" in2="effect1_dropShadow_201_30" result="shape"/>
</filter>
<filter id="filter3_d_201_30" x="254.026" y="149.476" width="21.0166" height="67.5241" filterUnits="userSpaceOnUse" color-interpolation-filters="sRGB">
<feFlood flood-opacity="0" result="BackgroundImageFix"/>
<feColorMatrix in="SourceAlpha" type="matrix" values="0 0 0 0 0 0 0 0 0 0 0 0 0 0 0 0 0 0 127 0" result="hardAlpha"/>
<feOffset dy="4"/>
<feGaussianBlur stdDeviation="2"/>
<feComposite in2="hardAlpha" operator="out"/>
<feColorMatrix type="matrix" values="0 0 0 0 0 0 0 0 0 0 0 0 0 0 0 0 0 0 0.25 0"/>
<feBlend mode="normal" in2="BackgroundImageFix" result="effect1_dropShadow_201_30"/>
<feBlend mode="normal" in="SourceGraphic" in2="effect1_dropShadow_201_30" result="shape"/>
</filter>
<filter id="filter4_d_201_30" x="140.161" y="101.663" width="55.1846" height="52.0394" filterUnits="userSpaceOnUse" color-interpolation-filters="sRGB">
<feFlood flood-opacity="0" result="BackgroundImageFix"/>
<feColorMatrix in="SourceAlpha" type="matrix" values="0 0 0 0 0 0 0 0 0 0 0 0 0 0 0 0 0 0 127 0" result="hardAlpha"/>
<feOffset dy="4"/>
<feGaussianBlur stdDeviation="2"/>
<feComposite in2="hardAlpha" operator="out"/>
<feColorMatrix type="matrix" values="0 0 0 0 0 0 0 0 0 0 0 0 0 0 0 0 0 0 0.25 0"/>
<feBlend mode="normal" in2="BackgroundImageFix" result="effect1_dropShadow_201_30"/>
<feBlend mode="normal" in="SourceGraphic" in2="effect1_dropShadow_201_30" result="shape"/>
</filter>
<filter id="filter5_d_201_30" x="175.072" y="101.748" width="63.5977" height="42.0784" filterUnits="userSpaceOnUse" color-interpolation-filters="sRGB">
<feFlood flood-opacity="0" result="BackgroundImageFix"/>
<feColorMatrix in="SourceAlpha" type="matrix" values="0 0 0 0 0 0 0 0 0 0 0 0 0 0 0 0 0 0 127 0" result="hardAlpha"/>
<feOffset dy="4"/>
<feGaussianBlur stdDeviation="2"/>
<feComposite in2="hardAlpha" operator="out"/>
<feColorMatrix type="matrix" values="0 0 0 0 0 0 0 0 0 0 0 0 0 0 0 0 0 0 0.25 0"/>
<feBlend mode="normal" in2="BackgroundImageFix" result="effect1_dropShadow_201_30"/>
<feBlend mode="normal" in="SourceGraphic" in2="effect1_dropShadow_201_30" result="shape"/>
</filter>
</defs>
</svg>
