<svg width="512" height="512" viewBox="0 0 512 512" fill="none" xmlns="http://www.w3.org/2000/svg">
<rect width="512" height="512" fill="black"/>
<path d="M65.064 441.576C61.64 441.576 58.536 440.84 55.752 439.368C53 437.864 50.824 435.8 49.224 433.176C47.656 430.52 46.872 427.528 46.872 424.2C46.872 420.872 47.656 417.896 49.224 415.272C50.824 412.616 53 410.552 55.752 409.08C58.536 407.576 61.656 406.824 65.112 406.824C68.024 406.824 70.648 407.336 72.984 408.36C75.352 409.384 77.336 410.856 78.936 412.776L73.944 417.384C71.672 414.76 68.856 413.448 65.496 413.448C63.416 413.448 61.56 413.912 59.928 414.84C58.296 415.736 57.016 417 56.088 418.632C55.192 420.264 54.744 422.12 54.744 424.2C54.744 426.28 55.192 428.136 56.088 429.768C57.016 431.4 58.296 432.68 59.928 433.608C61.56 434.504 63.416 434.952 65.496 434.952C68.856 434.952 71.672 433.624 73.944 430.968L78.936 435.576C77.336 437.528 75.352 439.016 72.984 440.04C70.616 441.064 67.976 441.576 65.064 441.576ZM105.595 441L99.1151 431.64L98.7311 431.64L91.9631 431.64L91.9631 441L84.1871 441L84.1871 407.4L98.7311 407.4C101.707 407.4 104.283 407.896 106.459 408.888C108.667 409.88 110.363 411.288 111.547 413.112C112.731 414.936 113.323 417.096 113.323 419.592C113.323 422.088 112.715 424.248 111.499 426.072C110.315 427.864 108.619 429.24 106.411 430.2L113.947 441L105.595 441ZM105.451 419.592C105.451 417.704 104.843 416.264 103.627 415.272C102.411 414.248 100.635 413.736 98.2991 413.736L91.9631 413.736L91.9631 425.448L98.2991 425.448C100.635 425.448 102.411 424.936 103.627 423.912C104.843 422.888 105.451 421.448 105.451 419.592ZM135.143 429.096L135.143 441L127.367 441L127.367 429L114.359 407.4L122.615 407.4L131.591 422.328L140.567 407.4L148.199 407.4L135.143 429.096ZM165.669 407.4C168.645 407.4 171.221 407.896 173.397 408.888C175.605 409.88 177.301 411.288 178.485 413.112C179.669 414.936 180.261 417.096 180.261 419.592C180.261 422.056 179.669 424.216 178.485 426.072C177.301 427.896 175.605 429.304 173.397 430.296C171.221 431.256 168.645 431.736 165.669 431.736L158.901 431.736L158.901 441L151.125 441L151.125 407.4L165.669 407.4ZM165.237 425.4C167.573 425.4 169.349 424.904 170.565 423.912C171.781 422.888 172.389 421.448 172.389 419.592C172.389 417.704 171.781 416.264 170.565 415.272C169.349 414.248 167.573 413.736 165.237 413.736L158.901 413.736L158.901 425.4L165.237 425.4ZM191.835 413.736L181.083 413.736L181.083 407.4L210.363 407.4L210.363 413.736L199.611 413.736L199.611 441L191.835 441L191.835 413.736ZM230.35 441.576C226.862 441.576 223.71 440.824 220.894 439.32C218.11 437.816 215.918 435.752 214.318 433.128C212.75 430.472 211.966 427.496 211.966 424.2C211.966 420.904 212.75 417.944 214.318 415.32C215.918 412.664 218.11 410.584 220.894 409.08C223.71 407.576 226.862 406.824 230.35 406.824C233.838 406.824 236.974 407.576 239.758 409.08C242.542 410.584 244.734 412.664 246.334 415.32C247.934 417.944 248.734 420.904 248.734 424.2C248.734 427.496 247.934 430.472 246.334 433.128C244.734 435.752 242.542 437.816 239.758 439.32C236.974 440.824 233.838 441.576 230.35 441.576ZM230.35 434.952C232.334 434.952 234.126 434.504 235.726 433.608C237.326 432.68 238.574 431.4 239.47 429.768C240.398 428.136 240.862 426.28 240.862 424.2C240.862 422.12 240.398 420.264 239.47 418.632C238.574 417 237.326 415.736 235.726 414.84C234.126 413.912 232.334 413.448 230.35 413.448C228.366 413.448 226.574 413.912 224.974 414.84C223.374 415.736 222.11 417 221.182 418.632C220.286 420.264 219.838 422.12 219.838 424.2C219.838 426.28 220.286 428.136 221.182 429.768C222.11 431.4 223.374 432.68 224.974 433.608C226.574 434.504 228.366 434.952 230.35 434.952ZM270.658 441.576C267.234 441.576 264.13 440.84 261.346 439.368C258.594 437.864 256.418 435.8 254.818 433.176C253.25 430.52 252.466 427.528 252.466 424.2C252.466 420.872 253.25 417.896 254.818 415.272C256.418 412.616 258.594 410.552 261.346 409.08C264.13 407.576 267.25 406.824 270.706 406.824C273.618 406.824 276.242 407.336 278.578 408.36C280.946 409.384 282.93 410.856 284.53 412.776L279.538 417.384C277.266 414.76 274.45 413.448 271.09 413.448C269.01 413.448 267.154 413.912 265.522 414.84C263.89 415.736 262.61 417 261.682 418.632C260.786 420.264 260.338 422.12 260.338 424.2C260.338 426.28 260.786 428.136 261.682 429.768C262.61 431.4 263.89 432.68 265.522 433.608C267.154 434.504 269.01 434.952 271.09 434.952C274.45 434.952 277.266 433.624 279.538 430.968L284.53 435.576C282.93 437.528 280.946 439.016 278.578 440.04C276.21 441.064 273.57 441.576 270.658 441.576ZM311.253 433.8L295.653 433.8L292.677 441L284.709 441L299.685 407.4L307.365 407.4L322.389 441L314.229 441L311.253 433.8ZM308.805 427.896L303.477 415.032L298.149 427.896L308.805 427.896ZM325.875 407.4L341.139 407.4C344.787 407.4 348.003 408.104 350.787 409.512C353.603 410.888 355.779 412.84 357.315 415.368C358.883 417.896 359.667 420.84 359.667 424.2C359.667 427.56 358.883 430.504 357.315 433.032C355.779 435.56 353.603 437.528 350.787 438.936C348.003 440.312 344.787 441 341.139 441L325.875 441L325.875 407.4ZM340.755 434.616C344.115 434.616 346.787 433.688 348.771 431.832C350.787 429.944 351.795 427.4 351.795 424.2C351.795 421 350.787 418.472 348.771 416.616C346.787 414.728 344.115 413.784 340.755 413.784L333.651 413.784L333.651 434.616L340.755 434.616ZM391.547 434.76L391.547 441L365.531 441L365.531 407.4L390.923 407.4L390.923 413.64L373.259 413.64L373.259 420.936L388.859 420.936L388.859 426.984L373.259 426.984L373.259 434.76L391.547 434.76ZM428.31 441L428.262 420.84L418.374 437.448L414.87 437.448L405.03 421.272L405.03 441L397.734 441L397.734 407.4L404.166 407.4L416.742 428.28L429.126 407.4L435.51 407.4L435.606 441L428.31 441ZM459.706 429.096L459.706 441L451.93 441L451.93 429L438.922 407.4L447.178 407.4L456.154 422.328L465.13 407.4L472.762 407.4L459.706 429.096Z" fill="white"/>
<path d="M112.153 43.3582C109.205 45.4215 108.616 73.1297 109.205 171.877L110.09 298.038L182.013 337.537C221.512 359.35 254.526 377.036 255.705 377.036C256.59 377.036 289.898 359.35 329.692 337.537L401.91 298.333L402.795 171.877C403.384 73.1297 402.795 45.4215 399.847 43.3582C397.784 42.1791 332.935 41 256 41C179.065 41 114.216 42.1791 112.153 43.3582ZM388.646 171.877C388.646 258.834 387.761 285.658 385.108 288.016C383.045 289.49 352.979 306.291 318.786 325.157L256 359.35L193.509 325.157C159.021 306.291 128.955 289.49 127.186 288.016C124.239 285.658 123.354 258.834 123.354 171.877V58.6861H256H388.646V171.877Z" fill="white"/>
<path d="M185.063 99.868V107.571H261.67H338.277V143.005V178.439H345.643H353.009V135.302V92.165H269.036H185.063V99.868Z" fill="white"/>
<path d="M197.574 205.152V234.629L226.756 250.841C242.674 259.979 257.412 267.348 259.181 267.348C262.423 267.348 309.291 241.998 313.418 237.872C314.892 236.693 314.597 232.566 312.534 229.323C309.291 222.838 308.997 222.838 284.236 236.398L259.181 249.957L237.957 238.461L216.734 226.67L215.85 201.32L214.966 175.97H206.417H197.574V205.152Z" fill="white"/>
<g filter="url(#filter0_d_202_55)">
<line x1="160.738" y1="113.195" x2="161.888" y2="258.518" stroke="white" stroke-width="15"/>
</g>
<g filter="url(#filter1_d_202_55)">
<line x1="157.083" y1="252.138" x2="259.844" y2="313.488" stroke="white" stroke-width="15"/>
</g>
<g filter="url(#filter2_d_202_55)">
<line x1="252.478" y1="313.223" x2="351.788" y2="260.392" stroke="white" stroke-width="15"/>
</g>
<g filter="url(#filter3_d_202_55)">
<line x1="346.532" y1="267.025" x2="347.811" y2="192.497" stroke="white" stroke-width="15"/>
</g>
<g filter="url(#filter4_d_202_55)">
<line x1="200.95" y1="182.04" x2="250.173" y2="137.938" stroke="white" stroke-width="15"/>
</g>
<g filter="url(#filter5_d_202_55)">
<path d="M242.896 139.255L306.474 168.363" stroke="white" stroke-width="15"/>
</g>
<defs>
<filter id="filter0_d_202_55" x="149.238" y="113.135" width="24.1494" height="153.442" filterUnits="userSpaceOnUse" color-interpolation-filters="sRGB">
<feFlood flood-opacity="0" result="BackgroundImageFix"/>
<feColorMatrix in="SourceAlpha" type="matrix" values="0 0 0 0 0 0 0 0 0 0 0 0 0 0 0 0 0 0 127 0" result="hardAlpha"/>
<feOffset dy="4"/>
<feGaussianBlur stdDeviation="2"/>
<feComposite in2="hardAlpha" operator="out"/>
<feColorMatrix type="matrix" values="0 0 0 0 0 0 0 0 0 0 0 0 0 0 0 0 0 0 0.25 0"/>
<feBlend mode="normal" in2="BackgroundImageFix" result="effect1_dropShadow_202_55"/>
<feBlend mode="normal" in="SourceGraphic" in2="effect1_dropShadow_202_55" result="shape"/>
</filter>
<filter id="filter1_d_202_55" x="149.238" y="245.698" width="118.45" height="82.2295" filterUnits="userSpaceOnUse" color-interpolation-filters="sRGB">
<feFlood flood-opacity="0" result="BackgroundImageFix"/>
<feColorMatrix in="SourceAlpha" type="matrix" values="0 0 0 0 0 0 0 0 0 0 0 0 0 0 0 0 0 0 127 0" result="hardAlpha"/>
<feOffset dy="4"/>
<feGaussianBlur stdDeviation="2"/>
<feComposite in2="hardAlpha" operator="out"/>
<feColorMatrix type="matrix" values="0 0 0 0 0 0 0 0 0 0 0 0 0 0 0 0 0 0 0.25 0"/>
<feBlend mode="normal" in2="BackgroundImageFix" result="effect1_dropShadow_202_55"/>
<feBlend mode="normal" in="SourceGraphic" in2="effect1_dropShadow_202_55" result="shape"/>
</filter>
<filter id="filter2_d_202_55" x="244.955" y="253.77" width="114.355" height="74.0743" filterUnits="userSpaceOnUse" color-interpolation-filters="sRGB">
<feFlood flood-opacity="0" result="BackgroundImageFix"/>
<feColorMatrix in="SourceAlpha" type="matrix" values="0 0 0 0 0 0 0 0 0 0 0 0 0 0 0 0 0 0 127 0" result="hardAlpha"/>
<feOffset dy="4"/>
<feGaussianBlur stdDeviation="2"/>
<feComposite in2="hardAlpha" operator="out"/>
<feColorMatrix type="matrix" values="0 0 0 0 0 0 0 0 0 0 0 0 0 0 0 0 0 0 0.25 0"/>
<feBlend mode="normal" in2="BackgroundImageFix" result="effect1_dropShadow_202_55"/>
<feBlend mode="normal" in="SourceGraphic" in2="effect1_dropShadow_202_55" result="shape"/>
</filter>
<filter id="filter3_d_202_55" x="335.033" y="192.368" width="24.2773" height="82.7853" filterUnits="userSpaceOnUse" color-interpolation-filters="sRGB">
<feFlood flood-opacity="0" result="BackgroundImageFix"/>
<feColorMatrix in="SourceAlpha" type="matrix" values="0 0 0 0 0 0 0 0 0 0 0 0 0 0 0 0 0 0 127 0" result="hardAlpha"/>
<feOffset dy="4"/>
<feGaussianBlur stdDeviation="2"/>
<feComposite in2="hardAlpha" operator="out"/>
<feColorMatrix type="matrix" values="0 0 0 0 0 0 0 0 0 0 0 0 0 0 0 0 0 0 0.25 0"/>
<feBlend mode="normal" in2="BackgroundImageFix" result="effect1_dropShadow_202_55"/>
<feBlend mode="normal" in="SourceGraphic" in2="effect1_dropShadow_202_55" result="shape"/>
</filter>
<filter id="filter4_d_202_55" x="191.945" y="132.352" width="67.2324" height="63.2743" filterUnits="userSpaceOnUse" color-interpolation-filters="sRGB">
<feFlood flood-opacity="0" result="BackgroundImageFix"/>
<feColorMatrix in="SourceAlpha" type="matrix" values="0 0 0 0 0 0 0 0 0 0 0 0 0 0 0 0 0 0 127 0" result="hardAlpha"/>
<feOffset dy="4"/>
<feGaussianBlur stdDeviation="2"/>
<feComposite in2="hardAlpha" operator="out"/>
<feColorMatrix type="matrix" values="0 0 0 0 0 0 0 0 0 0 0 0 0 0 0 0 0 0 0.25 0"/>
<feBlend mode="normal" in2="BackgroundImageFix" result="effect1_dropShadow_202_55"/>
<feBlend mode="normal" in="SourceGraphic" in2="effect1_dropShadow_202_55" result="shape"/>
</filter>
<filter id="filter5_d_202_55" x="235.774" y="132.436" width="77.8213" height="50.7465" filterUnits="userSpaceOnUse" color-interpolation-filters="sRGB">
<feFlood flood-opacity="0" result="BackgroundImageFix"/>
<feColorMatrix in="SourceAlpha" type="matrix" values="0 0 0 0 0 0 0 0 0 0 0 0 0 0 0 0 0 0 127 0" result="hardAlpha"/>
<feOffset dy="4"/>
<feGaussianBlur stdDeviation="2"/>
<feComposite in2="hardAlpha" operator="out"/>
<feColorMatrix type="matrix" values="0 0 0 0 0 0 0 0 0 0 0 0 0 0 0 0 0 0 0.25 0"/>
<feBlend mode="normal" in2="BackgroundImageFix" result="effect1_dropShadow_202_55"/>
<feBlend mode="normal" in="SourceGraphic" in2="effect1_dropShadow_202_55" result="shape"/>
</filter>
</defs>
</svg>
